<svg width="390" height="253" viewBox="0 0 390 253" fill="none" xmlns="http://www.w3.org/2000/svg">
<rect x="0.5" y="107.5" width="160" height="38" fill="#1E1E1E" stroke="url(#paint0_linear_104_2)"/>
<path d="M38.7958 114.273H39.8526V120.051C39.8526 120.648 39.712 121.18 39.4308 121.649C39.1523 122.115 38.7589 122.483 38.2504 122.753C37.7418 123.02 37.1452 123.153 36.4606 123.153C35.7759 123.153 35.1793 123.02 34.6708 122.753C34.1623 122.483 33.7674 122.115 33.4862 121.649C33.2077 121.18 33.0685 120.648 33.0685 120.051V114.273H34.1254V119.966C34.1254 120.392 34.2191 120.771 34.4066 121.104C34.5941 121.433 34.8612 121.693 35.2077 121.884C35.5572 122.071 35.9748 122.165 36.4606 122.165C36.9464 122.165 37.364 122.071 37.7134 121.884C38.0629 121.693 38.3299 121.433 38.5146 121.104C38.7021 120.771 38.7958 120.392 38.7958 119.966V114.273ZM41.9631 123V114.273H45.0142C45.6222 114.273 46.1236 114.378 46.5185 114.588C46.9134 114.795 47.2074 115.075 47.4006 115.428C47.5938 115.777 47.6903 116.165 47.6903 116.591C47.6903 116.966 47.6236 117.276 47.4901 117.52C47.3594 117.764 47.1861 117.957 46.9702 118.099C46.7571 118.241 46.5256 118.347 46.2756 118.415V118.5C46.5426 118.517 46.8111 118.611 47.081 118.781C47.3509 118.952 47.5767 119.196 47.7585 119.514C47.9403 119.832 48.0312 120.222 48.0312 120.682C48.0312 121.119 47.9318 121.513 47.733 121.862C47.5341 122.212 47.2202 122.489 46.7912 122.693C46.3622 122.898 45.804 123 45.1165 123H41.9631ZM43.0199 122.062H45.1165C45.8068 122.062 46.2969 121.929 46.5866 121.662C46.8793 121.392 47.0256 121.065 47.0256 120.682C47.0256 120.386 46.9503 120.114 46.7997 119.864C46.6491 119.611 46.4347 119.409 46.1562 119.259C45.8778 119.105 45.5483 119.028 45.1676 119.028H43.0199V122.062ZM43.0199 118.108H44.9801C45.2983 118.108 45.5852 118.045 45.8409 117.92C46.0994 117.795 46.304 117.619 46.4545 117.392C46.608 117.165 46.6847 116.898 46.6847 116.591C46.6847 116.207 46.5511 115.882 46.2841 115.615C46.017 115.345 45.5938 115.21 45.0142 115.21H43.0199V118.108ZM56.7905 117H55.7337C55.6712 116.696 55.5618 116.429 55.4055 116.199C55.2521 115.969 55.0646 115.776 54.843 115.619C54.6243 115.46 54.3814 115.341 54.1143 115.261C53.8473 115.182 53.5689 115.142 53.2791 115.142C52.7507 115.142 52.272 115.276 51.843 115.543C51.4169 115.81 51.0774 116.203 50.8246 116.723C50.5746 117.243 50.4496 117.881 50.4496 118.636C50.4496 119.392 50.5746 120.03 50.8246 120.55C51.0774 121.07 51.4169 121.463 51.843 121.73C52.272 121.997 52.7507 122.131 53.2791 122.131C53.5689 122.131 53.8473 122.091 54.1143 122.011C54.3814 121.932 54.6243 121.814 54.843 121.658C55.0646 121.499 55.2521 121.304 55.4055 121.074C55.5618 120.841 55.6712 120.574 55.7337 120.273H56.7905C56.7109 120.719 56.5661 121.118 56.3558 121.47C56.1456 121.822 55.8842 122.122 55.5717 122.369C55.2592 122.614 54.9084 122.8 54.5192 122.928C54.1328 123.055 53.7195 123.119 53.2791 123.119C52.5348 123.119 51.8729 122.938 51.2933 122.574C50.7138 122.21 50.2578 121.693 49.9254 121.023C49.593 120.352 49.4268 119.557 49.4268 118.636C49.4268 117.716 49.593 116.92 49.9254 116.25C50.2578 115.58 50.7138 115.062 51.2933 114.699C51.8729 114.335 52.5348 114.153 53.2791 114.153C53.7195 114.153 54.1328 114.217 54.5192 114.345C54.9084 114.473 55.2592 114.661 55.5717 114.908C55.8842 115.152 56.1456 115.45 56.3558 115.803C56.5661 116.152 56.7109 116.551 56.7905 117ZM67.8391 117C67.7454 116.713 67.6218 116.456 67.4684 116.229C67.3178 115.999 67.1374 115.803 66.9272 115.641C66.7198 115.479 66.484 115.355 66.2198 115.27C65.9556 115.185 65.6658 115.142 65.3505 115.142C64.8335 115.142 64.3633 115.276 63.94 115.543C63.5167 115.81 63.18 116.203 62.93 116.723C62.68 117.243 62.555 117.881 62.555 118.636C62.555 119.392 62.6815 120.03 62.9343 120.55C63.1871 121.07 63.5295 121.463 63.9613 121.73C64.3931 121.997 64.8789 122.131 65.4187 122.131C65.9187 122.131 66.359 122.024 66.7397 121.811C67.1232 121.595 67.4215 121.291 67.6346 120.899C67.8505 120.504 67.9585 120.04 67.9585 119.506L68.2823 119.574H65.6573V118.636H68.9812V119.574C68.9812 120.293 68.8278 120.918 68.521 121.449C68.217 121.98 67.7965 122.392 67.2596 122.685C66.7255 122.974 66.1119 123.119 65.4187 123.119C64.646 123.119 63.967 122.938 63.3817 122.574C62.7994 122.21 62.3448 121.693 62.0181 121.023C61.6942 120.352 61.5323 119.557 61.5323 118.636C61.5323 117.946 61.6246 117.325 61.8093 116.774C61.9968 116.22 62.261 115.749 62.6019 115.359C62.9428 114.97 63.3462 114.672 63.8121 114.464C64.2781 114.257 64.7908 114.153 65.3505 114.153C65.8107 114.153 66.2397 114.223 66.6374 114.362C67.038 114.499 67.3945 114.693 67.707 114.946C68.0224 115.196 68.2852 115.496 68.4954 115.845C68.7056 116.192 68.8505 116.577 68.93 117H67.8391ZM70.7912 123V114.273H73.7401C74.4219 114.273 74.9815 114.389 75.419 114.622C75.8565 114.852 76.1804 115.169 76.3906 115.572C76.6009 115.976 76.706 116.435 76.706 116.949C76.706 117.463 76.6009 117.919 76.3906 118.317C76.1804 118.714 75.858 119.027 75.4233 119.254C74.9886 119.479 74.4332 119.591 73.7571 119.591H71.3707V118.636H73.723C74.1889 118.636 74.5639 118.568 74.848 118.432C75.1349 118.295 75.3423 118.102 75.4702 117.852C75.6009 117.599 75.6662 117.298 75.6662 116.949C75.6662 116.599 75.6009 116.294 75.4702 116.033C75.3395 115.771 75.1307 115.57 74.8438 115.428C74.5568 115.283 74.1776 115.21 73.706 115.21H71.848V123H70.7912ZM74.8991 119.08L77.0469 123H75.8196L73.706 119.08H74.8991ZM78.8249 123H77.717L80.9215 114.273H82.0124L85.217 123H84.109L81.5011 115.653H81.4329L78.8249 123ZM79.234 119.591H83.6999V120.528H79.234V119.591ZM89.2695 123H86.5763V114.273H89.3888C90.2354 114.273 90.9599 114.447 91.5621 114.797C92.1644 115.143 92.6261 115.642 92.9471 116.293C93.2681 116.94 93.4286 117.716 93.4286 118.619C93.4286 119.528 93.2667 120.311 92.9428 120.967C92.619 121.621 92.1474 122.124 91.5281 122.476C90.9087 122.825 90.1559 123 89.2695 123ZM87.6332 122.062H89.2013C89.9229 122.062 90.521 121.923 90.9954 121.645C91.4698 121.366 91.8235 120.97 92.0565 120.456C92.2894 119.942 92.4059 119.33 92.4059 118.619C92.4059 117.915 92.2908 117.308 92.0607 116.8C91.8306 116.288 91.4869 115.896 91.0295 115.624C90.5721 115.348 90.0025 115.21 89.3207 115.21H87.6332V122.062ZM100.929 114.273H101.985V120.051C101.985 120.648 101.845 121.18 101.564 121.649C101.285 122.115 100.892 122.483 100.383 122.753C99.8746 123.02 99.2781 123.153 98.5934 123.153C97.9087 123.153 97.3121 123.02 96.8036 122.753C96.2951 122.483 95.9002 122.115 95.619 121.649C95.3406 121.18 95.2013 120.648 95.2013 120.051V114.273H96.2582V119.966C96.2582 120.392 96.3519 120.771 96.5394 121.104C96.7269 121.433 96.994 121.693 97.3406 121.884C97.69 122.071 98.1076 122.165 98.5934 122.165C99.0792 122.165 99.4968 122.071 99.8462 121.884C100.196 121.693 100.463 121.433 100.647 121.104C100.835 120.771 100.929 120.392 100.929 119.966V114.273ZM104.454 123H103.346L106.55 114.273H107.641L110.846 123H109.738L107.13 115.653H107.062L104.454 123ZM104.863 119.591H109.329V120.528H104.863V119.591ZM110.708 115.21V114.273H117.254V115.21H114.51V123H113.453V115.21H110.708ZM118.885 123V114.273H124.152V115.21H119.942V118.159H123.879V119.097H119.942V122.062H124.22V123H118.885ZM58.592 138V129.273H61.5408C62.2255 129.273 62.7852 129.396 63.2198 129.643C63.6573 129.888 63.9812 130.219 64.1914 130.636C64.4016 131.054 64.5067 131.52 64.5067 132.034C64.5067 132.548 64.4016 133.016 64.1914 133.436C63.984 133.857 63.663 134.192 63.2283 134.442C62.7937 134.689 62.2369 134.812 61.5579 134.812H59.4442V133.875H61.5238C61.9925 133.875 62.369 133.794 62.6531 133.632C62.9371 133.47 63.1431 133.251 63.271 132.976C63.4016 132.697 63.467 132.384 63.467 132.034C63.467 131.685 63.4016 131.372 63.271 131.097C63.1431 130.821 62.9357 130.605 62.6488 130.449C62.3619 130.29 61.9812 130.21 61.5067 130.21H59.6488V138H58.592ZM66.2092 138V129.273H69.158C69.8398 129.273 70.3995 129.389 70.837 129.622C71.2745 129.852 71.5984 130.169 71.8086 130.572C72.0188 130.976 72.1239 131.435 72.1239 131.949C72.1239 132.463 72.0188 132.919 71.8086 133.317C71.5984 133.714 71.2759 134.027 70.8413 134.254C70.4066 134.479 69.8512 134.591 69.1751 134.591H66.7887V133.636H69.141C69.6069 133.636 69.9819 133.568 70.266 133.432C70.5529 133.295 70.7603 133.102 70.8881 132.852C71.0188 132.599 71.0842 132.298 71.0842 131.949C71.0842 131.599 71.0188 131.294 70.8881 131.033C70.7575 130.771 70.5487 130.57 70.2617 130.428C69.9748 130.283 69.5955 130.21 69.1239 130.21H67.266V138H66.2092ZM70.3171 134.08L72.4648 138H71.2376L69.1239 134.08H70.3171ZM81.2486 133.636C81.2486 134.557 81.0824 135.352 80.75 136.023C80.4176 136.693 79.9616 137.21 79.3821 137.574C78.8026 137.938 78.1406 138.119 77.3963 138.119C76.652 138.119 75.9901 137.938 75.4105 137.574C74.831 137.21 74.375 136.693 74.0426 136.023C73.7102 135.352 73.544 134.557 73.544 133.636C73.544 132.716 73.7102 131.92 74.0426 131.25C74.375 130.58 74.831 130.062 75.4105 129.699C75.9901 129.335 76.652 129.153 77.3963 129.153C78.1406 129.153 78.8026 129.335 79.3821 129.699C79.9616 130.062 80.4176 130.58 80.75 131.25C81.0824 131.92 81.2486 132.716 81.2486 133.636ZM80.2259 133.636C80.2259 132.881 80.0994 132.243 79.8466 131.723C79.5966 131.203 79.2571 130.81 78.8281 130.543C78.402 130.276 77.9247 130.142 77.3963 130.142C76.8679 130.142 76.3892 130.276 75.9602 130.543C75.5341 130.81 75.1946 131.203 74.9418 131.723C74.6918 132.243 74.5668 132.881 74.5668 133.636C74.5668 134.392 74.6918 135.03 74.9418 135.55C75.1946 136.07 75.5341 136.463 75.9602 136.73C76.3892 136.997 76.8679 137.131 77.3963 137.131C77.9247 137.131 78.402 136.997 78.8281 136.73C79.2571 136.463 79.5966 136.07 79.8466 135.55C80.0994 135.03 80.2259 134.392 80.2259 133.636ZM88.9915 132C88.8977 131.713 88.7741 131.456 88.6207 131.229C88.4702 130.999 88.2898 130.803 88.0795 130.641C87.8722 130.479 87.6364 130.355 87.3722 130.27C87.108 130.185 86.8182 130.142 86.5028 130.142C85.9858 130.142 85.5156 130.276 85.0923 130.543C84.669 130.81 84.3324 131.203 84.0824 131.723C83.8324 132.243 83.7074 132.881 83.7074 133.636C83.7074 134.392 83.8338 135.03 84.0866 135.55C84.3395 136.07 84.6818 136.463 85.1136 136.73C85.5455 136.997 86.0313 137.131 86.571 137.131C87.071 137.131 87.5114 137.024 87.892 136.811C88.2756 136.595 88.5739 136.291 88.7869 135.899C89.0028 135.504 89.1108 135.04 89.1108 134.506L89.4347 134.574H86.8097V133.636H90.1335V134.574C90.1335 135.293 89.9801 135.918 89.6733 136.449C89.3693 136.98 88.9489 137.392 88.4119 137.685C87.8778 137.974 87.2642 138.119 86.571 138.119C85.7983 138.119 85.1193 137.938 84.5341 137.574C83.9517 137.21 83.4972 136.693 83.1705 136.023C82.8466 135.352 82.6847 134.557 82.6847 133.636C82.6847 132.946 82.777 132.325 82.9616 131.774C83.1491 131.22 83.4134 130.749 83.7543 130.359C84.0952 129.97 84.4986 129.672 84.9645 129.464C85.4304 129.257 85.9432 129.153 86.5028 129.153C86.9631 129.153 87.392 129.223 87.7898 129.362C88.1903 129.499 88.5469 129.693 88.8594 129.946C89.1747 130.196 89.4375 130.496 89.6477 130.845C89.858 131.192 90.0028 131.577 90.0824 132H88.9915ZM91.9435 138V129.273H94.8924C95.5742 129.273 96.1339 129.389 96.5714 129.622C97.0089 129.852 97.3327 130.169 97.543 130.572C97.7532 130.976 97.8583 131.435 97.8583 131.949C97.8583 132.463 97.7532 132.919 97.543 133.317C97.3327 133.714 97.0103 134.027 96.5756 134.254C96.141 134.479 95.5856 134.591 94.9094 134.591H92.5231V133.636H94.8754C95.3413 133.636 95.7163 133.568 96.0004 133.432C96.2873 133.295 96.4947 133.102 96.6225 132.852C96.7532 132.599 96.8185 132.298 96.8185 131.949C96.8185 131.599 96.7532 131.294 96.6225 131.033C96.4918 130.771 96.283 130.57 95.9961 130.428C95.7092 130.283 95.3299 130.21 94.8583 130.21H93.0004V138H91.9435ZM96.0515 134.08L98.1992 138H96.9719L94.8583 134.08H96.0515ZM99.9773 138H98.8693L102.074 129.273H103.165L106.369 138H105.261L102.653 130.653H102.585L99.9773 138ZM100.386 134.591H104.852V135.528H100.386V134.591ZM107.729 129.273H108.99L111.956 136.517H112.058L115.024 129.273H116.286V138H115.297V131.369H115.212L112.484 138H111.53L108.803 131.369H108.717V138H107.729V129.273ZM123.177 131.455C123.126 131.023 122.919 130.688 122.555 130.449C122.191 130.21 121.745 130.091 121.217 130.091C120.831 130.091 120.493 130.153 120.203 130.278C119.916 130.403 119.691 130.575 119.529 130.794C119.37 131.013 119.291 131.261 119.291 131.54C119.291 131.773 119.346 131.973 119.457 132.141C119.571 132.305 119.716 132.443 119.892 132.554C120.068 132.662 120.252 132.751 120.446 132.822C120.639 132.891 120.816 132.946 120.978 132.989L121.865 133.227C122.092 133.287 122.345 133.369 122.623 133.474C122.904 133.58 123.173 133.723 123.429 133.905C123.687 134.084 123.9 134.314 124.068 134.595C124.235 134.876 124.319 135.222 124.319 135.631C124.319 136.102 124.196 136.528 123.949 136.909C123.704 137.29 123.346 137.592 122.875 137.817C122.406 138.041 121.836 138.153 121.166 138.153C120.541 138.153 120 138.053 119.542 137.851C119.088 137.649 118.73 137.368 118.468 137.007C118.21 136.646 118.064 136.227 118.029 135.75H119.12C119.149 136.08 119.26 136.352 119.453 136.568C119.649 136.781 119.896 136.94 120.194 137.045C120.495 137.148 120.819 137.199 121.166 137.199C121.569 137.199 121.931 137.134 122.252 137.003C122.574 136.869 122.828 136.685 123.015 136.449C123.203 136.21 123.297 135.932 123.297 135.614C123.297 135.324 123.216 135.088 123.054 134.906C122.892 134.724 122.679 134.577 122.414 134.463C122.15 134.349 121.865 134.25 121.558 134.165L120.484 133.858C119.802 133.662 119.262 133.382 118.865 133.018C118.467 132.655 118.268 132.179 118.268 131.591C118.268 131.102 118.4 130.676 118.664 130.312C118.931 129.946 119.289 129.662 119.738 129.46C120.19 129.256 120.694 129.153 121.251 129.153C121.814 129.153 122.314 129.254 122.751 129.456C123.189 129.655 123.535 129.928 123.791 130.274C124.049 130.621 124.186 131.014 124.2 131.455H123.177Z" fill="white"/>
<path d="M145.417 118.969V111H133.438C132.641 111 132 111.627 132 112.406V139.594C132 140.373 132.641 141 133.438 141H153.562C154.359 141 155 140.373 155 139.594V120.375H146.854C146.064 120.375 145.417 119.742 145.417 118.969ZM154.581 117.152L148.717 111.41C148.447 111.146 148.082 111 147.699 111H147.333V118.5H155V118.143C155 117.773 154.85 117.416 154.581 117.152Z" fill="#FFBC7D"/>
<path d="M141.593 136.557L141.545 136.616C141.51 136.652 141.449 136.698 141.364 136.755C141.282 136.808 141.182 136.863 141.065 136.92C140.951 136.973 140.798 137.018 140.606 137.053C140.414 137.092 140.208 137.112 139.988 137.112C139.522 137.112 139.124 137.036 138.793 136.883C138.462 136.726 138.203 136.5 138.014 136.205C137.83 135.907 137.696 135.571 137.614 135.197C137.533 134.82 137.492 134.385 137.492 133.891C137.492 133.364 137.533 132.911 137.614 132.531C137.696 132.147 137.831 131.811 138.02 131.523C138.212 131.231 138.475 131.012 138.809 130.867C139.143 130.721 139.55 130.648 140.03 130.648C140.251 130.648 140.457 130.668 140.649 130.707C140.845 130.746 140.998 130.79 141.108 130.84C141.222 130.89 141.323 130.947 141.412 131.011C141.504 131.075 141.561 131.119 141.582 131.144C141.607 131.169 141.625 131.188 141.636 131.203L141.556 132.429H140.745L140.468 131.795C140.404 131.777 140.35 131.768 140.308 131.768C140.07 131.768 139.886 131.823 139.758 131.933C139.63 132.04 139.533 132.252 139.465 132.568C139.398 132.881 139.364 133.332 139.364 133.923C139.364 134.275 139.385 134.582 139.428 134.845C139.474 135.108 139.529 135.311 139.593 135.453C139.657 135.592 139.734 135.704 139.822 135.789C139.911 135.875 139.991 135.93 140.062 135.955C140.134 135.976 140.21 135.987 140.292 135.987C140.473 135.987 140.663 135.965 140.862 135.923C141.062 135.876 141.225 135.807 141.353 135.715L141.593 136.557ZM143.93 137.112C143.656 137.112 143.4 137.087 143.162 137.037C142.927 136.991 142.73 136.929 142.57 136.851C142.41 136.772 142.278 136.698 142.175 136.627C142.075 136.556 141.992 136.484 141.924 136.413L142.058 135.117C142.203 135.313 142.399 135.484 142.644 135.629C142.89 135.772 143.154 135.843 143.439 135.843C143.723 135.843 143.928 135.812 144.052 135.752C144.18 135.692 144.244 135.581 144.244 135.421C144.244 135.251 144.171 135.105 144.026 134.984C143.883 134.863 143.636 134.717 143.284 134.547C143.156 134.483 143.048 134.426 142.959 134.376C142.87 134.323 142.751 134.237 142.602 134.12C142.456 133.999 142.337 133.875 142.244 133.747C142.152 133.615 142.07 133.448 141.999 133.245C141.928 133.039 141.892 132.819 141.892 132.584C141.892 131.315 142.609 130.68 144.042 130.68C144.269 130.68 144.482 130.705 144.682 130.755C144.884 130.801 145.042 130.852 145.156 130.909C145.27 130.966 145.373 131.034 145.466 131.112C145.562 131.187 145.622 131.24 145.647 131.272C145.672 131.3 145.69 131.324 145.7 131.341L145.434 132.371C145.295 132.207 145.121 132.086 144.911 132.008C144.705 131.926 144.507 131.885 144.319 131.885C143.864 131.885 143.636 132.028 143.636 132.312C143.636 132.387 143.65 132.454 143.679 132.515C143.707 132.575 143.754 132.63 143.818 132.68C143.882 132.73 143.94 132.772 143.994 132.808C144.05 132.844 144.127 132.888 144.223 132.941C144.322 132.991 144.397 133.032 144.447 133.064C144.966 133.284 145.346 133.546 145.588 133.848C145.834 134.15 145.956 134.518 145.956 134.952C145.956 135.656 145.782 136.193 145.434 136.563C145.089 136.929 144.587 137.112 143.93 137.112ZM147.577 137L145.812 130.749H147.78L148.244 132.904L148.724 135.165L149.177 132.904L149.657 130.749H151.06L149.513 137H147.577Z" fill="#1E1E1E"/>
<rect x="0.5" y="214.5" width="160" height="38" fill="#1E1E1E" stroke="url(#paint1_linear_104_2)"/>
<path d="M29.4506 223.455C29.3995 223.023 29.1921 222.688 28.8285 222.449C28.4648 222.21 28.0188 222.091 27.4904 222.091C27.104 222.091 26.766 222.153 26.4762 222.278C26.1893 222.403 25.9648 222.575 25.8029 222.794C25.6438 223.013 25.5643 223.261 25.5643 223.54C25.5643 223.773 25.6197 223.973 25.7305 224.141C25.8441 224.305 25.989 224.443 26.1651 224.554C26.3413 224.662 26.5259 224.751 26.7191 224.822C26.9123 224.891 27.0898 224.946 27.2518 224.989L28.1381 225.227C28.3654 225.287 28.6183 225.369 28.8967 225.474C29.1779 225.58 29.4464 225.723 29.7021 225.905C29.9606 226.084 30.1737 226.314 30.3413 226.595C30.5089 226.876 30.5927 227.222 30.5927 227.631C30.5927 228.102 30.4691 228.528 30.2219 228.909C29.9776 229.29 29.6197 229.592 29.1481 229.817C28.6793 230.041 28.1097 230.153 27.4393 230.153C26.8143 230.153 26.2731 230.053 25.8157 229.851C25.3612 229.649 25.0032 229.368 24.7418 229.007C24.4833 228.646 24.337 228.227 24.3029 227.75H25.3938C25.4222 228.08 25.533 228.352 25.7262 228.568C25.9222 228.781 26.1694 228.94 26.4677 229.045C26.7688 229.148 27.0927 229.199 27.4393 229.199C27.8427 229.199 28.2049 229.134 28.5259 229.003C28.8469 228.869 29.1012 228.685 29.2887 228.449C29.4762 228.21 29.57 227.932 29.57 227.614C29.57 227.324 29.489 227.088 29.3271 226.906C29.1651 226.724 28.9521 226.577 28.6879 226.463C28.4237 226.349 28.1381 226.25 27.8313 226.165L26.7575 225.858C26.0756 225.662 25.5359 225.382 25.1381 225.018C24.7404 224.655 24.5415 224.179 24.5415 223.591C24.5415 223.102 24.6737 222.676 24.9379 222.312C25.2049 221.946 25.5629 221.662 26.0117 221.46C26.4634 221.256 26.9677 221.153 27.5245 221.153C28.087 221.153 28.587 221.254 29.0245 221.456C29.462 221.655 29.8086 221.928 30.0643 222.274C30.3228 222.621 30.4592 223.014 30.4734 223.455H29.4506ZM38.0575 221.273H39.1143V227.051C39.1143 227.648 38.9737 228.18 38.6925 228.649C38.4141 229.115 38.0206 229.483 37.5121 229.753C37.0036 230.02 36.407 230.153 35.7223 230.153C35.0376 230.153 34.4411 230.02 33.9325 229.753C33.424 229.483 33.0291 229.115 32.7479 228.649C32.4695 228.18 32.3303 227.648 32.3303 227.051V221.273H33.3871V226.966C33.3871 227.392 33.4808 227.771 33.6683 228.104C33.8558 228.433 34.1229 228.693 34.4695 228.884C34.8189 229.071 35.2365 229.165 35.7223 229.165C36.2081 229.165 36.6257 229.071 36.9751 228.884C37.3246 228.693 37.5916 228.433 37.7763 228.104C37.9638 227.771 38.0575 227.392 38.0575 226.966V221.273ZM41.2248 230V221.273H44.1737C44.8583 221.273 45.418 221.396 45.8526 221.643C46.2901 221.888 46.614 222.219 46.8242 222.636C47.0344 223.054 47.1396 223.52 47.1396 224.034C47.1396 224.548 47.0344 225.016 46.8242 225.436C46.6168 225.857 46.2958 226.192 45.8612 226.442C45.4265 226.689 44.8697 226.812 44.1907 226.812H42.0771V225.875H44.1566C44.6254 225.875 45.0018 225.794 45.2859 225.632C45.57 225.47 45.7759 225.251 45.9038 224.976C46.0344 224.697 46.0998 224.384 46.0998 224.034C46.0998 223.685 46.0344 223.372 45.9038 223.097C45.7759 222.821 45.5685 222.605 45.2816 222.449C44.9947 222.29 44.614 222.21 44.1396 222.21H42.2816V230H41.2248ZM48.842 230V221.273H54.109V222.21H49.8988V225.159H53.8363V226.097H49.8988V229.062H54.1772V230H48.842ZM56.0138 230V221.273H58.9627C59.6445 221.273 60.2042 221.389 60.6417 221.622C61.0792 221.852 61.4031 222.169 61.6133 222.572C61.8235 222.976 61.9286 223.435 61.9286 223.949C61.9286 224.463 61.8235 224.919 61.6133 225.317C61.4031 225.714 61.0806 226.027 60.646 226.254C60.2113 226.479 59.6559 226.591 58.9798 226.591H56.5934V225.636H58.9457C59.4116 225.636 59.7866 225.568 60.0707 225.432C60.3576 225.295 60.565 225.102 60.6928 224.852C60.8235 224.599 60.8888 224.298 60.8888 223.949C60.8888 223.599 60.8235 223.294 60.6928 223.033C60.5621 222.771 60.3533 222.57 60.0664 222.428C59.7795 222.283 59.4002 222.21 58.9286 222.21H57.0707V230H56.0138ZM60.1218 226.08L62.2695 230H61.0423L58.9286 226.08H60.1218ZM63.8484 221.273L66.4393 228.619H66.5415L69.1325 221.273H70.2404L67.0359 230H65.945L62.7404 221.273H63.8484ZM72.6566 221.273V230H71.5998V221.273H72.6566ZM79.5483 223.455C79.4972 223.023 79.2898 222.688 78.9261 222.449C78.5625 222.21 78.1165 222.091 77.5881 222.091C77.2017 222.091 76.8636 222.153 76.5739 222.278C76.2869 222.403 76.0625 222.575 75.9006 222.794C75.7415 223.013 75.6619 223.261 75.6619 223.54C75.6619 223.773 75.7173 223.973 75.8281 224.141C75.9418 224.305 76.0866 224.443 76.2628 224.554C76.4389 224.662 76.6236 224.751 76.8168 224.822C77.0099 224.891 77.1875 224.946 77.3494 224.989L78.2358 225.227C78.4631 225.287 78.7159 225.369 78.9943 225.474C79.2756 225.58 79.544 225.723 79.7997 225.905C80.0582 226.084 80.2713 226.314 80.4389 226.595C80.6065 226.876 80.6903 227.222 80.6903 227.631C80.6903 228.102 80.5668 228.528 80.3196 228.909C80.0753 229.29 79.7173 229.592 79.2457 229.817C78.777 230.041 78.2074 230.153 77.5369 230.153C76.9119 230.153 76.3707 230.053 75.9134 229.851C75.4588 229.649 75.1009 229.368 74.8395 229.007C74.581 228.646 74.4347 228.227 74.4006 227.75H75.4915C75.5199 228.08 75.6307 228.352 75.8239 228.568C76.0199 228.781 76.267 228.94 76.5653 229.045C76.8665 229.148 77.1903 229.199 77.5369 229.199C77.9403 229.199 78.3026 229.134 78.6236 229.003C78.9446 228.869 79.1989 228.685 79.3864 228.449C79.5739 228.21 79.6676 227.932 79.6676 227.614C79.6676 227.324 79.5866 227.088 79.4247 226.906C79.2628 226.724 79.0497 226.577 78.7855 226.463C78.5213 226.349 78.2358 226.25 77.929 226.165L76.8551 225.858C76.1733 225.662 75.6335 225.382 75.2358 225.018C74.8381 224.655 74.6392 224.179 74.6392 223.591C74.6392 223.102 74.7713 222.676 75.0355 222.312C75.3026 221.946 75.6605 221.662 76.1094 221.46C76.5611 221.256 77.0653 221.153 77.6222 221.153C78.1847 221.153 78.6847 221.254 79.1222 221.456C79.5597 221.655 79.9063 221.928 80.1619 222.274C80.4205 222.621 80.5568 223.014 80.571 223.455H79.5483ZM89.7915 225.636C89.7915 226.557 89.6254 227.352 89.293 228.023C88.9606 228.693 88.5046 229.21 87.9251 229.574C87.3455 229.938 86.6836 230.119 85.9393 230.119C85.195 230.119 84.533 229.938 83.9535 229.574C83.3739 229.21 82.918 228.693 82.5856 228.023C82.2532 227.352 82.087 226.557 82.087 225.636C82.087 224.716 82.2532 223.92 82.5856 223.25C82.918 222.58 83.3739 222.062 83.9535 221.699C84.533 221.335 85.195 221.153 85.9393 221.153C86.6836 221.153 87.3455 221.335 87.9251 221.699C88.5046 222.062 88.9606 222.58 89.293 223.25C89.6254 223.92 89.7915 224.716 89.7915 225.636ZM88.7688 225.636C88.7688 224.881 88.6424 224.243 88.3896 223.723C88.1396 223.203 87.8001 222.81 87.3711 222.543C86.945 222.276 86.4677 222.142 85.9393 222.142C85.4109 222.142 84.9322 222.276 84.5032 222.543C84.0771 222.81 83.7376 223.203 83.4847 223.723C83.2347 224.243 83.1097 224.881 83.1097 225.636C83.1097 226.392 83.2347 227.03 83.4847 227.55C83.7376 228.07 84.0771 228.463 84.5032 228.73C84.9322 228.997 85.4109 229.131 85.9393 229.131C86.4677 229.131 86.945 228.997 87.3711 228.73C87.8001 228.463 88.1396 228.07 88.3896 227.55C88.6424 227.03 88.7688 226.392 88.7688 225.636ZM91.5685 230V221.273H94.5174C95.1992 221.273 95.7589 221.389 96.1964 221.622C96.6339 221.852 96.9577 222.169 97.168 222.572C97.3782 222.976 97.4833 223.435 97.4833 223.949C97.4833 224.463 97.3782 224.919 97.168 225.317C96.9577 225.714 96.6353 226.027 96.2006 226.254C95.766 226.479 95.2106 226.591 94.5344 226.591H92.1481V225.636H94.5004C94.9663 225.636 95.3413 225.568 95.6254 225.432C95.9123 225.295 96.1197 225.102 96.2475 224.852C96.3782 224.599 96.4435 224.298 96.4435 223.949C96.4435 223.599 96.3782 223.294 96.2475 223.033C96.1168 222.771 95.908 222.57 95.6211 222.428C95.3342 222.283 94.9549 222.21 94.4833 222.21H92.6254V230H91.5685ZM95.6765 226.08L97.8242 230H96.5969L94.4833 226.08H95.6765ZM104.017 223.455C103.966 223.023 103.759 222.688 103.395 222.449C103.031 222.21 102.585 222.091 102.057 222.091C101.67 222.091 101.332 222.153 101.043 222.278C100.756 222.403 100.531 222.575 100.369 222.794C100.21 223.013 100.131 223.261 100.131 223.54C100.131 223.773 100.186 223.973 100.297 224.141C100.411 224.305 100.555 224.443 100.732 224.554C100.908 224.662 101.092 224.751 101.286 224.822C101.479 224.891 101.656 224.946 101.818 224.989L102.705 225.227C102.932 225.287 103.185 225.369 103.463 225.474C103.744 225.58 104.013 225.723 104.268 225.905C104.527 226.084 104.74 226.314 104.908 226.595C105.075 226.876 105.159 227.222 105.159 227.631C105.159 228.102 105.036 228.528 104.788 228.909C104.544 229.29 104.186 229.592 103.714 229.817C103.246 230.041 102.676 230.153 102.006 230.153C101.381 230.153 100.839 230.053 100.382 229.851C99.9276 229.649 99.5696 229.368 99.3082 229.007C99.0497 228.646 98.9034 228.227 98.8693 227.75H99.9602C99.9886 228.08 100.099 228.352 100.293 228.568C100.489 228.781 100.736 228.94 101.034 229.045C101.335 229.148 101.659 229.199 102.006 229.199C102.409 229.199 102.771 229.134 103.092 229.003C103.413 228.869 103.668 228.685 103.855 228.449C104.043 228.21 104.136 227.932 104.136 227.614C104.136 227.324 104.055 227.088 103.893 226.906C103.732 226.724 103.518 226.577 103.254 226.463C102.99 226.349 102.705 226.25 102.398 226.165L101.324 225.858C100.642 225.662 100.102 225.382 99.7045 225.018C99.3068 224.655 99.108 224.179 99.108 223.591C99.108 223.102 99.2401 222.676 99.5043 222.312C99.7713 221.946 100.129 221.662 100.578 221.46C101.03 221.256 101.534 221.153 102.091 221.153C102.653 221.153 103.153 221.254 103.591 221.456C104.028 221.655 104.375 221.928 104.631 222.274C104.889 222.621 105.026 223.014 105.04 223.455H104.017ZM110.272 230V221.273H113.323C113.931 221.273 114.432 221.378 114.827 221.588C115.222 221.795 115.516 222.075 115.709 222.428C115.902 222.777 115.999 223.165 115.999 223.591C115.999 223.966 115.932 224.276 115.799 224.52C115.668 224.764 115.495 224.957 115.279 225.099C115.066 225.241 114.834 225.347 114.584 225.415V225.5C114.851 225.517 115.12 225.611 115.39 225.781C115.659 225.952 115.885 226.196 116.067 226.514C116.249 226.832 116.34 227.222 116.34 227.682C116.34 228.119 116.24 228.513 116.042 228.862C115.843 229.212 115.529 229.489 115.1 229.693C114.671 229.898 114.113 230 113.425 230H110.272ZM111.328 229.062H113.425C114.115 229.062 114.605 228.929 114.895 228.662C115.188 228.392 115.334 228.065 115.334 227.682C115.334 227.386 115.259 227.114 115.108 226.864C114.958 226.611 114.743 226.409 114.465 226.259C114.186 226.105 113.857 226.028 113.476 226.028H111.328V229.062ZM111.328 225.108H113.289C113.607 225.108 113.894 225.045 114.15 224.92C114.408 224.795 114.613 224.619 114.763 224.392C114.917 224.165 114.993 223.898 114.993 223.591C114.993 223.207 114.86 222.882 114.593 222.615C114.326 222.345 113.902 222.21 113.323 222.21H111.328V225.108ZM117.326 221.273H118.537L120.957 225.347H121.059L123.48 221.273H124.69L121.537 226.403V230H120.48V226.403L117.326 221.273ZM34.8061 238.455C34.755 238.023 34.5476 237.688 34.1839 237.449C33.8203 237.21 33.3743 237.091 32.8459 237.091C32.4595 237.091 32.1214 237.153 31.8317 237.278C31.5447 237.403 31.3203 237.575 31.1584 237.794C30.9993 238.013 30.9197 238.261 30.9197 238.54C30.9197 238.773 30.9751 238.973 31.0859 239.141C31.1996 239.305 31.3445 239.443 31.5206 239.554C31.6967 239.662 31.8814 239.751 32.0746 239.822C32.2678 239.891 32.4453 239.946 32.6072 239.989L33.4936 240.227C33.7209 240.287 33.9737 240.369 34.2521 240.474C34.5334 240.58 34.8018 240.723 35.0575 240.905C35.3161 241.084 35.5291 241.314 35.6967 241.595C35.8643 241.876 35.9482 242.222 35.9482 242.631C35.9482 243.102 35.8246 243.528 35.5774 243.909C35.3331 244.29 34.9751 244.592 34.5036 244.817C34.0348 245.041 33.4652 245.153 32.7947 245.153C32.1697 245.153 31.6286 245.053 31.1712 244.851C30.7166 244.649 30.3587 244.368 30.0973 244.007C29.8388 243.646 29.6925 243.227 29.6584 242.75H30.7493C30.7777 243.08 30.8885 243.352 31.0817 243.568C31.2777 243.781 31.5249 243.94 31.8232 244.045C32.1243 244.148 32.4482 244.199 32.7947 244.199C33.1982 244.199 33.5604 244.134 33.8814 244.003C34.2024 243.869 34.4567 243.685 34.6442 243.449C34.8317 243.21 34.9254 242.932 34.9254 242.614C34.9254 242.324 34.8445 242.088 34.6825 241.906C34.5206 241.724 34.3075 241.577 34.0433 241.463C33.7791 241.349 33.4936 241.25 33.1868 241.165L32.1129 240.858C31.4311 240.662 30.8913 240.382 30.4936 240.018C30.0959 239.655 29.897 239.179 29.897 238.591C29.897 238.102 30.0291 237.676 30.2933 237.312C30.5604 236.946 30.9183 236.662 31.3672 236.46C31.8189 236.256 32.3232 236.153 32.88 236.153C33.4425 236.153 33.9425 236.254 34.38 236.456C34.8175 236.655 35.1641 236.928 35.4197 237.274C35.6783 237.621 35.8146 238.014 35.8288 238.455H34.8061ZM37.6857 245V236.273H40.6346C41.3192 236.273 41.8789 236.396 42.3136 236.643C42.7511 236.888 43.0749 237.219 43.2852 237.636C43.4954 238.054 43.6005 238.52 43.6005 239.034C43.6005 239.548 43.4954 240.016 43.2852 240.436C43.0778 240.857 42.7567 241.192 42.3221 241.442C41.8874 241.689 41.3306 241.812 40.6516 241.812H38.538V240.875H40.6175C41.0863 240.875 41.4627 240.794 41.7468 240.632C42.0309 240.47 42.2369 240.251 42.3647 239.976C42.4954 239.697 42.5607 239.384 42.5607 239.034C42.5607 238.685 42.4954 238.372 42.3647 238.097C42.2369 237.821 42.0295 237.605 41.7425 237.449C41.4556 237.29 41.0749 237.21 40.6005 237.21H38.7425V245H37.6857ZM45.3029 245V236.273H50.57V237.21H46.3597V240.159H50.2972V241.097H46.3597V244.062H50.6381V245H45.3029ZM59.4975 239H58.4407C58.3782 238.696 58.2688 238.429 58.1126 238.199C57.9592 237.969 57.7717 237.776 57.5501 237.619C57.3313 237.46 57.0884 237.341 56.8214 237.261C56.5543 237.182 56.2759 237.142 55.9862 237.142C55.4577 237.142 54.979 237.276 54.5501 237.543C54.1239 237.81 53.7844 238.203 53.5316 238.723C53.2816 239.243 53.1566 239.881 53.1566 240.636C53.1566 241.392 53.2816 242.03 53.5316 242.55C53.7844 243.07 54.1239 243.463 54.5501 243.73C54.979 243.997 55.4577 244.131 55.9862 244.131C56.2759 244.131 56.5543 244.091 56.8214 244.011C57.0884 243.932 57.3313 243.814 57.5501 243.658C57.7717 243.499 57.9592 243.304 58.1126 243.074C58.2688 242.841 58.3782 242.574 58.4407 242.273H59.4975C59.418 242.719 59.2731 243.118 59.0629 243.47C58.8526 243.822 58.5913 244.122 58.2788 244.369C57.9663 244.614 57.6154 244.8 57.2262 244.928C56.8398 245.055 56.4265 245.119 55.9862 245.119C55.2418 245.119 54.5799 244.938 54.0004 244.574C53.4208 244.21 52.9648 243.693 52.6325 243.023C52.3001 242.352 52.1339 241.557 52.1339 240.636C52.1339 239.716 52.3001 238.92 52.6325 238.25C52.9648 237.58 53.4208 237.062 54.0004 236.699C54.5799 236.335 55.2418 236.153 55.9862 236.153C56.4265 236.153 56.8398 236.217 57.2262 236.345C57.6154 236.473 57.9663 236.661 58.2788 236.908C58.5913 237.152 58.8526 237.45 59.0629 237.803C59.2731 238.152 59.418 238.551 59.4975 239ZM62.2621 236.273V245H61.2053V236.273H62.2621ZM64.739 245H63.631L66.8356 236.273H67.9265L71.131 245H70.0231L67.4151 237.653H67.3469L64.739 245ZM65.1481 241.591H69.614V242.528H65.1481V241.591ZM72.4904 245V236.273H73.5472V244.062H77.604V245H72.4904ZM80.2972 236.273V245H79.2404V236.273H80.2972ZM82.1264 245V244.233L86.831 237.21H82.0753V236.273H88.0923V237.04L83.3878 244.062H88.1435V245H82.1264ZM90.2741 245H89.1662L92.3707 236.273H93.4616L96.6662 245H95.5582L92.9503 237.653H92.8821L90.2741 245ZM90.6832 241.591H95.1491V242.528H90.6832V241.591ZM96.5288 237.21V236.273H103.074V237.21H100.33V245H99.2731V237.21H96.5288ZM105.762 236.273V245H104.705V236.273H105.762ZM115.245 240.636C115.245 241.557 115.078 242.352 114.746 243.023C114.414 243.693 113.958 244.21 113.378 244.574C112.799 244.938 112.137 245.119 111.392 245.119C110.648 245.119 109.986 244.938 109.407 244.574C108.827 244.21 108.371 243.693 108.039 243.023C107.706 242.352 107.54 241.557 107.54 240.636C107.54 239.716 107.706 238.92 108.039 238.25C108.371 237.58 108.827 237.062 109.407 236.699C109.986 236.335 110.648 236.153 111.392 236.153C112.137 236.153 112.799 236.335 113.378 236.699C113.958 237.062 114.414 237.58 114.746 238.25C115.078 238.92 115.245 239.716 115.245 240.636ZM114.222 240.636C114.222 239.881 114.096 239.243 113.843 238.723C113.593 238.203 113.253 237.81 112.824 237.543C112.398 237.276 111.921 237.142 111.392 237.142C110.864 237.142 110.385 237.276 109.956 237.543C109.53 237.81 109.191 238.203 108.938 238.723C108.688 239.243 108.563 239.881 108.563 240.636C108.563 241.392 108.688 242.03 108.938 242.55C109.191 243.07 109.53 243.463 109.956 243.73C110.385 243.997 110.864 244.131 111.392 244.131C111.921 244.131 112.398 243.997 112.824 243.73C113.253 243.463 113.593 243.07 113.843 242.55C114.096 242.03 114.222 241.392 114.222 240.636ZM123.942 236.273V245H122.919L118.164 238.148H118.078V245H117.022V236.273H118.044L122.817 243.142H122.902V236.273H123.942Z" fill="white"/>
<path d="M145.417 225.969V218H133.438C132.641 218 132 218.627 132 219.406V246.594C132 247.373 132.641 248 133.438 248H153.562C154.359 248 155 247.373 155 246.594V227.375H146.854C146.064 227.375 145.417 226.742 145.417 225.969ZM154.581 224.152L148.717 218.41C148.447 218.146 148.082 218 147.699 218H147.333V225.5H155V225.143C155 224.773 154.85 224.416 154.581 224.152Z" fill="#FFBC7D"/>
<path d="M135.789 244.101C135.53 244.101 135.295 244.068 135.085 244C134.876 243.929 134.733 243.858 134.659 243.787L134.643 242.683C134.76 242.747 134.854 242.789 134.925 242.811C134.997 242.832 135.089 242.843 135.203 242.843C135.395 242.843 135.546 242.786 135.656 242.672C135.77 242.558 135.827 242.366 135.827 242.096V238.219L135.571 237.749H137.56V241.995C137.56 242.244 137.546 242.466 137.517 242.661C137.493 242.853 137.441 243.044 137.363 243.232C137.285 243.417 137.181 243.572 137.053 243.696C136.925 243.817 136.755 243.915 136.541 243.989C136.328 244.064 136.077 244.101 135.789 244.101ZM140.078 244.112C139.804 244.112 139.548 244.087 139.31 244.037C139.075 243.991 138.878 243.929 138.718 243.851C138.558 243.772 138.426 243.698 138.323 243.627C138.224 243.556 138.14 243.484 138.073 243.413L138.206 242.117C138.352 242.313 138.547 242.484 138.793 242.629C139.038 242.772 139.303 242.843 139.587 242.843C139.872 242.843 140.076 242.812 140.201 242.752C140.329 242.692 140.393 242.581 140.393 242.421C140.393 242.251 140.32 242.105 140.174 241.984C140.032 241.863 139.785 241.717 139.433 241.547C139.305 241.483 139.196 241.426 139.107 241.376C139.018 241.323 138.899 241.237 138.75 241.12C138.604 240.999 138.485 240.875 138.393 240.747C138.3 240.615 138.218 240.448 138.147 240.245C138.076 240.039 138.041 239.819 138.041 239.584C138.041 238.315 138.757 237.68 140.19 237.68C140.418 237.68 140.631 237.705 140.83 237.755C141.033 237.801 141.191 237.852 141.305 237.909C141.418 237.966 141.522 238.034 141.614 238.112C141.71 238.187 141.77 238.24 141.795 238.272C141.82 238.3 141.838 238.324 141.849 238.341L141.582 239.371C141.443 239.207 141.269 239.086 141.059 239.008C140.853 238.926 140.656 238.885 140.467 238.885C140.012 238.885 139.785 239.028 139.785 239.312C139.785 239.387 139.799 239.454 139.827 239.515C139.856 239.575 139.902 239.63 139.966 239.68C140.03 239.73 140.089 239.772 140.142 239.808C140.199 239.844 140.275 239.888 140.371 239.941C140.471 239.991 140.546 240.032 140.595 240.064C141.114 240.284 141.495 240.546 141.737 240.848C141.982 241.15 142.105 241.518 142.105 241.952C142.105 242.656 141.93 243.193 141.582 243.563C141.237 243.929 140.736 244.112 140.078 244.112ZM144.478 241.584C144.478 242.174 144.522 242.585 144.611 242.816C144.704 243.047 144.864 243.163 145.091 243.163C145.258 243.163 145.385 243.122 145.47 243.04C145.555 242.955 145.619 242.782 145.662 242.523C145.708 242.26 145.731 241.867 145.731 241.344V240.059C145.731 239.55 145.681 239.172 145.582 238.923C145.482 238.674 145.319 238.549 145.091 238.549C144.864 238.549 144.704 238.672 144.611 238.917C144.522 239.159 144.478 239.602 144.478 240.245V241.584ZM144.979 244.112C144.684 244.112 144.417 244.085 144.179 244.032C143.945 243.979 143.742 243.904 143.571 243.808C143.401 243.712 143.251 243.589 143.123 243.44C142.999 243.291 142.897 243.131 142.819 242.96C142.745 242.789 142.684 242.59 142.638 242.363C142.592 242.132 142.56 241.902 142.542 241.675C142.524 241.444 142.515 241.184 142.515 240.896C142.515 240.469 142.536 240.098 142.579 239.781C142.625 239.465 142.709 239.168 142.83 238.891C142.951 238.61 143.111 238.382 143.31 238.208C143.512 238.034 143.772 237.897 144.089 237.797C144.409 237.698 144.785 237.648 145.219 237.648C145.518 237.648 145.786 237.676 146.024 237.733C146.263 237.787 146.467 237.861 146.638 237.957C146.808 238.053 146.956 238.178 147.081 238.331C147.209 238.484 147.31 238.647 147.385 238.821C147.463 238.992 147.525 239.193 147.571 239.424C147.617 239.655 147.649 239.884 147.667 240.112C147.685 240.34 147.694 240.597 147.694 240.885C147.694 241.312 147.671 241.684 147.624 242C147.578 242.316 147.495 242.613 147.374 242.891C147.253 243.164 147.091 243.388 146.888 243.563C146.686 243.733 146.424 243.868 146.105 243.968C145.788 244.064 145.413 244.112 144.979 244.112ZM149.944 244H148.248V238.251L147.987 237.749H149.949L150.931 239.776L151.869 241.797L151.608 239.424V237.749H153.309V244H151.683L150.413 241.531L149.629 239.984L149.944 242.032V244Z" fill="#1E1E1E"/>
<rect x="229.5" y="107.5" width="160" height="38" fill="#1E1E1E" stroke="url(#paint2_linear_104_2)"/>
<path d="M251.963 123V114.273H254.912C255.594 114.273 256.153 114.389 256.591 114.622C257.028 114.852 257.352 115.169 257.562 115.572C257.773 115.976 257.878 116.435 257.878 116.949C257.878 117.463 257.773 117.919 257.562 118.317C257.352 118.714 257.03 119.027 256.595 119.254C256.161 119.479 255.605 119.591 254.929 119.591H252.543V118.636H254.895C255.361 118.636 255.736 118.568 256.02 118.432C256.307 118.295 256.514 118.102 256.642 117.852C256.773 117.599 256.838 117.298 256.838 116.949C256.838 116.599 256.773 116.294 256.642 116.033C256.511 115.771 256.303 115.57 256.016 115.428C255.729 115.283 255.349 115.21 254.878 115.21H253.02V123H251.963ZM256.071 119.08L258.219 123H256.991L254.878 119.08H256.071ZM259.639 123V114.273H264.906V115.21H260.696V118.159H264.633V119.097H260.696V122.062H264.974V123H259.639ZM266.811 114.273H268.072L271.038 121.517H271.14L274.106 114.273H275.368V123H274.379V116.369H274.294L271.566 123H270.612L267.885 116.369H267.799V123H266.811V114.273ZM283.214 114.273H284.271V120.051C284.271 120.648 284.13 121.18 283.849 121.649C283.57 122.115 283.177 122.483 282.668 122.753C282.16 123.02 281.563 123.153 280.879 123.153C280.194 123.153 279.597 123.02 279.089 122.753C278.58 122.483 278.185 122.115 277.904 121.649C277.626 121.18 277.487 120.648 277.487 120.051V114.273H278.543V119.966C278.543 120.392 278.637 120.771 278.825 121.104C279.012 121.433 279.279 121.693 279.626 121.884C279.975 122.071 280.393 122.165 280.879 122.165C281.364 122.165 281.782 122.071 282.131 121.884C282.481 121.693 282.748 121.433 282.933 121.104C283.12 120.771 283.214 120.392 283.214 119.966V114.273ZM293.301 114.273V123H292.279L287.523 116.148H287.438V123H286.381V114.273H287.404L292.176 121.142H292.262V114.273H293.301ZM295.416 123V114.273H300.683V115.21H296.473V118.159H300.411V119.097H296.473V122.062H300.751V123H295.416ZM302.588 123V114.273H305.537C306.219 114.273 306.778 114.389 307.216 114.622C307.653 114.852 307.977 115.169 308.188 115.572C308.398 115.976 308.503 116.435 308.503 116.949C308.503 117.463 308.398 117.919 308.188 118.317C307.977 118.714 307.655 119.027 307.22 119.254C306.786 119.479 306.23 119.591 305.554 119.591H303.168V118.636H305.52C305.986 118.636 306.361 118.568 306.645 118.432C306.932 118.295 307.139 118.102 307.267 117.852C307.398 117.599 307.463 117.298 307.463 116.949C307.463 116.599 307.398 116.294 307.267 116.033C307.136 115.771 306.928 115.57 306.641 115.428C306.354 115.283 305.974 115.21 305.503 115.21H303.645V123H302.588ZM306.696 119.08L308.844 123H307.616L305.503 119.08H306.696ZM310.622 123H309.514L312.718 114.273H313.809L317.014 123H315.906L313.298 115.653H313.23L310.622 123ZM311.031 119.591H315.497V120.528H311.031V119.591ZM316.876 115.21V114.273H323.422V115.21H320.678V123H319.621V115.21H316.876ZM326.11 114.273V123H325.053V114.273H326.11ZM335.592 118.636C335.592 119.557 335.426 120.352 335.094 121.023C334.761 121.693 334.305 122.21 333.726 122.574C333.146 122.938 332.484 123.119 331.74 123.119C330.996 123.119 330.334 122.938 329.754 122.574C329.175 122.21 328.719 121.693 328.386 121.023C328.054 120.352 327.888 119.557 327.888 118.636C327.888 117.716 328.054 116.92 328.386 116.25C328.719 115.58 329.175 115.062 329.754 114.699C330.334 114.335 330.996 114.153 331.74 114.153C332.484 114.153 333.146 114.335 333.726 114.699C334.305 115.062 334.761 115.58 335.094 116.25C335.426 116.92 335.592 117.716 335.592 118.636ZM334.57 118.636C334.57 117.881 334.443 117.243 334.19 116.723C333.94 116.203 333.601 115.81 333.172 115.543C332.746 115.276 332.268 115.142 331.74 115.142C331.212 115.142 330.733 115.276 330.304 115.543C329.878 115.81 329.538 116.203 329.286 116.723C329.036 117.243 328.911 117.881 328.911 118.636C328.911 119.392 329.036 120.03 329.286 120.55C329.538 121.07 329.878 121.463 330.304 121.73C330.733 121.997 331.212 122.131 331.74 122.131C332.268 122.131 332.746 121.997 333.172 121.73C333.601 121.463 333.94 121.07 334.19 120.55C334.443 120.03 334.57 119.392 334.57 118.636ZM344.29 114.273V123H343.267L338.511 116.148H338.426V123H337.369V114.273H338.392L343.165 121.142H343.25V114.273H344.29ZM351.177 116.455C351.126 116.023 350.919 115.688 350.555 115.449C350.191 115.21 349.745 115.091 349.217 115.091C348.831 115.091 348.493 115.153 348.203 115.278C347.916 115.403 347.691 115.575 347.529 115.794C347.37 116.013 347.291 116.261 347.291 116.54C347.291 116.773 347.346 116.973 347.457 117.141C347.571 117.305 347.716 117.443 347.892 117.554C348.068 117.662 348.252 117.751 348.446 117.822C348.639 117.891 348.816 117.946 348.978 117.989L349.865 118.227C350.092 118.287 350.345 118.369 350.623 118.474C350.904 118.58 351.173 118.723 351.429 118.905C351.687 119.084 351.9 119.314 352.068 119.595C352.235 119.876 352.319 120.222 352.319 120.631C352.319 121.102 352.196 121.528 351.949 121.909C351.704 122.29 351.346 122.592 350.875 122.817C350.406 123.041 349.836 123.153 349.166 123.153C348.541 123.153 348 123.053 347.542 122.851C347.088 122.649 346.73 122.368 346.468 122.007C346.21 121.646 346.064 121.227 346.029 120.75H347.12C347.149 121.08 347.26 121.352 347.453 121.568C347.649 121.781 347.896 121.94 348.194 122.045C348.495 122.148 348.819 122.199 349.166 122.199C349.569 122.199 349.931 122.134 350.252 122.003C350.574 121.869 350.828 121.685 351.015 121.449C351.203 121.21 351.297 120.932 351.297 120.614C351.297 120.324 351.216 120.088 351.054 119.906C350.892 119.724 350.679 119.577 350.414 119.463C350.15 119.349 349.865 119.25 349.558 119.165L348.484 118.858C347.802 118.662 347.262 118.382 346.865 118.018C346.467 117.655 346.268 117.179 346.268 116.591C346.268 116.102 346.4 115.676 346.664 115.312C346.931 114.946 347.289 114.662 347.738 114.46C348.19 114.256 348.694 114.153 349.251 114.153C349.814 114.153 350.314 114.254 350.751 114.456C351.189 114.655 351.535 114.928 351.791 115.274C352.049 115.621 352.186 116.014 352.2 116.455H351.177ZM271.967 138V129.273H275.018C275.626 129.273 276.127 129.378 276.522 129.588C276.917 129.795 277.211 130.075 277.404 130.428C277.598 130.777 277.694 131.165 277.694 131.591C277.694 131.966 277.627 132.276 277.494 132.52C277.363 132.764 277.19 132.957 276.974 133.099C276.761 133.241 276.529 133.347 276.279 133.415V133.5C276.547 133.517 276.815 133.611 277.085 133.781C277.355 133.952 277.581 134.196 277.762 134.514C277.944 134.832 278.035 135.222 278.035 135.682C278.035 136.119 277.936 136.513 277.737 136.862C277.538 137.212 277.224 137.489 276.795 137.693C276.366 137.898 275.808 138 275.12 138H271.967ZM273.024 137.062H275.12C275.811 137.062 276.301 136.929 276.591 136.662C276.883 136.392 277.029 136.065 277.029 135.682C277.029 135.386 276.954 135.114 276.804 134.864C276.653 134.611 276.439 134.409 276.16 134.259C275.882 134.105 275.552 134.028 275.172 134.028H273.024V137.062ZM273.024 133.108H274.984C275.302 133.108 275.589 133.045 275.845 132.92C276.103 132.795 276.308 132.619 276.458 132.392C276.612 132.165 276.689 131.898 276.689 131.591C276.689 131.207 276.555 130.882 276.288 130.615C276.021 130.345 275.598 130.21 275.018 130.21H273.024V133.108ZM279.022 129.273H280.232L282.652 133.347H282.755L285.175 129.273H286.385L283.232 134.403V138H282.175V134.403L279.022 129.273ZM291.127 138V129.273H296.394V130.21H292.184V133.159H296.121V134.097H292.184V137.062H296.462V138H291.127ZM298.299 129.273H299.56L302.526 136.517H302.629L305.594 129.273H306.856V138H305.867V131.369H305.782L303.055 138H302.1L299.373 131.369H299.288V138H298.299V129.273ZM308.975 138V129.273H311.924C312.608 129.273 313.168 129.396 313.603 129.643C314.04 129.888 314.364 130.219 314.574 130.636C314.784 131.054 314.89 131.52 314.89 132.034C314.89 132.548 314.784 133.016 314.574 133.436C314.367 133.857 314.046 134.192 313.611 134.442C313.176 134.689 312.62 134.812 311.941 134.812H309.827V133.875H311.907C312.375 133.875 312.752 133.794 313.036 133.632C313.32 133.47 313.526 133.251 313.654 132.976C313.784 132.697 313.85 132.384 313.85 132.034C313.85 131.685 313.784 131.372 313.654 131.097C313.526 130.821 313.319 130.605 313.032 130.449C312.745 130.29 312.364 130.21 311.89 130.21H310.032V138H308.975ZM316.592 138V129.273H317.649V137.062H321.706V138H316.592ZM330.366 133.636C330.366 134.557 330.2 135.352 329.867 136.023C329.535 136.693 329.079 137.21 328.499 137.574C327.92 137.938 327.258 138.119 326.513 138.119C325.769 138.119 325.107 137.938 324.528 137.574C323.948 137.21 323.492 136.693 323.16 136.023C322.827 135.352 322.661 134.557 322.661 133.636C322.661 132.716 322.827 131.92 323.16 131.25C323.492 130.58 323.948 130.062 324.528 129.699C325.107 129.335 325.769 129.153 326.513 129.153C327.258 129.153 327.92 129.335 328.499 129.699C329.079 130.062 329.535 130.58 329.867 131.25C330.2 131.92 330.366 132.716 330.366 133.636ZM329.343 133.636C329.343 132.881 329.217 132.243 328.964 131.723C328.714 131.203 328.374 130.81 327.945 130.543C327.519 130.276 327.042 130.142 326.513 130.142C325.985 130.142 325.506 130.276 325.077 130.543C324.651 130.81 324.312 131.203 324.059 131.723C323.809 132.243 323.684 132.881 323.684 133.636C323.684 134.392 323.809 135.03 324.059 135.55C324.312 136.07 324.651 136.463 325.077 136.73C325.506 136.997 325.985 137.131 326.513 137.131C327.042 137.131 327.519 136.997 327.945 136.73C328.374 136.463 328.714 136.07 328.964 135.55C329.217 135.03 329.343 134.392 329.343 133.636ZM330.983 129.273H332.193L334.613 133.347H334.716L337.136 129.273H338.346L335.193 134.403V138H334.136V134.403L330.983 129.273ZM339.713 138V129.273H344.98V130.21H340.77V133.159H344.707V134.097H340.77V137.062H345.048V138H339.713ZM346.885 138V129.273H352.152V130.21H347.942V133.159H351.879V134.097H347.942V137.062H352.22V138H346.885Z" fill="white"/>
<path d="M373.417 118.969V111H361.438C360.641 111 360 111.627 360 112.406V139.594C360 140.373 360.641 141 361.438 141H381.562C382.359 141 383 140.373 383 139.594V120.375H374.854C374.064 120.375 373.417 119.742 373.417 118.969ZM382.581 117.152L376.717 111.41C376.447 111.146 376.082 111 375.699 111H375.333V118.5H383V118.143C383 117.773 382.85 117.416 382.581 117.152Z" fill="#FFBC7D"/>
<path d="M369.593 136.557L369.545 136.616C369.51 136.652 369.449 136.698 369.364 136.755C369.282 136.808 369.182 136.863 369.065 136.92C368.951 136.973 368.798 137.018 368.606 137.053C368.414 137.092 368.208 137.112 367.988 137.112C367.522 137.112 367.124 137.036 366.793 136.883C366.462 136.726 366.203 136.5 366.014 136.205C365.83 135.907 365.696 135.571 365.614 135.197C365.533 134.82 365.492 134.385 365.492 133.891C365.492 133.364 365.533 132.911 365.614 132.531C365.696 132.147 365.831 131.811 366.02 131.523C366.212 131.231 366.475 131.012 366.809 130.867C367.143 130.721 367.55 130.648 368.03 130.648C368.251 130.648 368.457 130.668 368.649 130.707C368.845 130.746 368.998 130.79 369.108 130.84C369.222 130.89 369.323 130.947 369.412 131.011C369.504 131.075 369.561 131.119 369.582 131.144C369.607 131.169 369.625 131.188 369.636 131.203L369.556 132.429H368.745L368.468 131.795C368.404 131.777 368.35 131.768 368.308 131.768C368.07 131.768 367.886 131.823 367.758 131.933C367.63 132.04 367.533 132.252 367.465 132.568C367.398 132.881 367.364 133.332 367.364 133.923C367.364 134.275 367.385 134.582 367.428 134.845C367.474 135.108 367.529 135.311 367.593 135.453C367.657 135.592 367.734 135.704 367.822 135.789C367.911 135.875 367.991 135.93 368.062 135.955C368.134 135.976 368.21 135.987 368.292 135.987C368.473 135.987 368.663 135.965 368.862 135.923C369.062 135.876 369.225 135.807 369.353 135.715L369.593 136.557ZM371.93 137.112C371.656 137.112 371.4 137.087 371.162 137.037C370.927 136.991 370.73 136.929 370.57 136.851C370.41 136.772 370.278 136.698 370.175 136.627C370.075 136.556 369.992 136.484 369.924 136.413L370.058 135.117C370.203 135.313 370.399 135.484 370.644 135.629C370.89 135.772 371.154 135.843 371.439 135.843C371.723 135.843 371.928 135.812 372.052 135.752C372.18 135.692 372.244 135.581 372.244 135.421C372.244 135.251 372.171 135.105 372.026 134.984C371.883 134.863 371.636 134.717 371.284 134.547C371.156 134.483 371.048 134.426 370.959 134.376C370.87 134.323 370.751 134.237 370.602 134.12C370.456 133.999 370.337 133.875 370.244 133.747C370.152 133.615 370.07 133.448 369.999 133.245C369.928 133.039 369.892 132.819 369.892 132.584C369.892 131.315 370.609 130.68 372.042 130.68C372.269 130.68 372.482 130.705 372.682 130.755C372.884 130.801 373.042 130.852 373.156 130.909C373.27 130.966 373.373 131.034 373.466 131.112C373.562 131.187 373.622 131.24 373.647 131.272C373.672 131.3 373.69 131.324 373.7 131.341L373.434 132.371C373.295 132.207 373.121 132.086 372.911 132.008C372.705 131.926 372.507 131.885 372.319 131.885C371.864 131.885 371.636 132.028 371.636 132.312C371.636 132.387 371.65 132.454 371.679 132.515C371.707 132.575 371.754 132.63 371.818 132.68C371.882 132.73 371.94 132.772 371.994 132.808C372.05 132.844 372.127 132.888 372.223 132.941C372.322 132.991 372.397 133.032 372.447 133.064C372.966 133.284 373.346 133.546 373.588 133.848C373.834 134.15 373.956 134.518 373.956 134.952C373.956 135.656 373.782 136.193 373.434 136.563C373.089 136.929 372.587 137.112 371.93 137.112ZM375.577 137L373.812 130.749H375.78L376.244 132.904L376.724 135.165L377.177 132.904L377.657 130.749H379.06L377.513 137H375.577Z" fill="#1E1E1E"/>
<rect x="229.5" y="214.5" width="160" height="38" fill="#1E1E1E" stroke="url(#paint3_linear_104_2)"/>
<path d="M251.963 230V221.273H254.912C255.594 221.273 256.153 221.389 256.591 221.622C257.028 221.852 257.352 222.169 257.562 222.572C257.773 222.976 257.878 223.435 257.878 223.949C257.878 224.463 257.773 224.919 257.562 225.317C257.352 225.714 257.03 226.027 256.595 226.254C256.161 226.479 255.605 226.591 254.929 226.591H252.543V225.636H254.895C255.361 225.636 255.736 225.568 256.02 225.432C256.307 225.295 256.514 225.102 256.642 224.852C256.773 224.599 256.838 224.298 256.838 223.949C256.838 223.599 256.773 223.294 256.642 223.033C256.511 222.771 256.303 222.57 256.016 222.428C255.729 222.283 255.349 222.21 254.878 222.21H253.02V230H251.963ZM256.071 226.08L258.219 230H256.991L254.878 226.08H256.071ZM259.639 230V221.273H264.906V222.21H260.696V225.159H264.633V226.097H260.696V229.062H264.974V230H259.639ZM266.811 221.273H268.072L271.038 228.517H271.14L274.106 221.273H275.368V230H274.379V223.369H274.294L271.566 230H270.612L267.885 223.369H267.799V230H266.811V221.273ZM283.214 221.273H284.271V227.051C284.271 227.648 284.13 228.18 283.849 228.649C283.57 229.115 283.177 229.483 282.668 229.753C282.16 230.02 281.563 230.153 280.879 230.153C280.194 230.153 279.597 230.02 279.089 229.753C278.58 229.483 278.185 229.115 277.904 228.649C277.626 228.18 277.487 227.648 277.487 227.051V221.273H278.543V226.966C278.543 227.392 278.637 227.771 278.825 228.104C279.012 228.433 279.279 228.693 279.626 228.884C279.975 229.071 280.393 229.165 280.879 229.165C281.364 229.165 281.782 229.071 282.131 228.884C282.481 228.693 282.748 228.433 282.933 228.104C283.12 227.771 283.214 227.392 283.214 226.966V221.273ZM293.301 221.273V230H292.279L287.523 223.148H287.438V230H286.381V221.273H287.404L292.176 228.142H292.262V221.273H293.301ZM295.416 230V221.273H300.683V222.21H296.473V225.159H300.411V226.097H296.473V229.062H300.751V230H295.416ZM302.588 230V221.273H305.537C306.219 221.273 306.778 221.389 307.216 221.622C307.653 221.852 307.977 222.169 308.188 222.572C308.398 222.976 308.503 223.435 308.503 223.949C308.503 224.463 308.398 224.919 308.188 225.317C307.977 225.714 307.655 226.027 307.22 226.254C306.786 226.479 306.23 226.591 305.554 226.591H303.168V225.636H305.52C305.986 225.636 306.361 225.568 306.645 225.432C306.932 225.295 307.139 225.102 307.267 224.852C307.398 224.599 307.463 224.298 307.463 223.949C307.463 223.599 307.398 223.294 307.267 223.033C307.136 222.771 306.928 222.57 306.641 222.428C306.354 222.283 305.974 222.21 305.503 222.21H303.645V230H302.588ZM306.696 226.08L308.844 230H307.616L305.503 226.08H306.696ZM310.622 230H309.514L312.718 221.273H313.809L317.014 230H315.906L313.298 222.653H313.23L310.622 230ZM311.031 226.591H315.497V227.528H311.031V226.591ZM316.876 222.21V221.273H323.422V222.21H320.678V230H319.621V222.21H316.876ZM326.11 221.273V230H325.053V221.273H326.11ZM335.592 225.636C335.592 226.557 335.426 227.352 335.094 228.023C334.761 228.693 334.305 229.21 333.726 229.574C333.146 229.938 332.484 230.119 331.74 230.119C330.996 230.119 330.334 229.938 329.754 229.574C329.175 229.21 328.719 228.693 328.386 228.023C328.054 227.352 327.888 226.557 327.888 225.636C327.888 224.716 328.054 223.92 328.386 223.25C328.719 222.58 329.175 222.062 329.754 221.699C330.334 221.335 330.996 221.153 331.74 221.153C332.484 221.153 333.146 221.335 333.726 221.699C334.305 222.062 334.761 222.58 335.094 223.25C335.426 223.92 335.592 224.716 335.592 225.636ZM334.57 225.636C334.57 224.881 334.443 224.243 334.19 223.723C333.94 223.203 333.601 222.81 333.172 222.543C332.746 222.276 332.268 222.142 331.74 222.142C331.212 222.142 330.733 222.276 330.304 222.543C329.878 222.81 329.538 223.203 329.286 223.723C329.036 224.243 328.911 224.881 328.911 225.636C328.911 226.392 329.036 227.03 329.286 227.55C329.538 228.07 329.878 228.463 330.304 228.73C330.733 228.997 331.212 229.131 331.74 229.131C332.268 229.131 332.746 228.997 333.172 228.73C333.601 228.463 333.94 228.07 334.19 227.55C334.443 227.03 334.57 226.392 334.57 225.636ZM344.29 221.273V230H343.267L338.511 223.148H338.426V230H337.369V221.273H338.392L343.165 228.142H343.25V221.273H344.29ZM351.177 223.455C351.126 223.023 350.919 222.688 350.555 222.449C350.191 222.21 349.745 222.091 349.217 222.091C348.831 222.091 348.493 222.153 348.203 222.278C347.916 222.403 347.691 222.575 347.529 222.794C347.37 223.013 347.291 223.261 347.291 223.54C347.291 223.773 347.346 223.973 347.457 224.141C347.571 224.305 347.716 224.443 347.892 224.554C348.068 224.662 348.252 224.751 348.446 224.822C348.639 224.891 348.816 224.946 348.978 224.989L349.865 225.227C350.092 225.287 350.345 225.369 350.623 225.474C350.904 225.58 351.173 225.723 351.429 225.905C351.687 226.084 351.9 226.314 352.068 226.595C352.235 226.876 352.319 227.222 352.319 227.631C352.319 228.102 352.196 228.528 351.949 228.909C351.704 229.29 351.346 229.592 350.875 229.817C350.406 230.041 349.836 230.153 349.166 230.153C348.541 230.153 348 230.053 347.542 229.851C347.088 229.649 346.73 229.368 346.468 229.007C346.21 228.646 346.064 228.227 346.029 227.75H347.12C347.149 228.08 347.26 228.352 347.453 228.568C347.649 228.781 347.896 228.94 348.194 229.045C348.495 229.148 348.819 229.199 349.166 229.199C349.569 229.199 349.931 229.134 350.252 229.003C350.574 228.869 350.828 228.685 351.015 228.449C351.203 228.21 351.297 227.932 351.297 227.614C351.297 227.324 351.216 227.088 351.054 226.906C350.892 226.724 350.679 226.577 350.414 226.463C350.15 226.349 349.865 226.25 349.558 226.165L348.484 225.858C347.802 225.662 347.262 225.382 346.865 225.018C346.467 224.655 346.268 224.179 346.268 223.591C346.268 223.102 346.4 222.676 346.664 222.312C346.931 221.946 347.289 221.662 347.738 221.46C348.19 221.256 348.694 221.153 349.251 221.153C349.814 221.153 350.314 221.254 350.751 221.456C351.189 221.655 351.535 221.928 351.791 222.274C352.049 222.621 352.186 223.014 352.2 223.455H351.177ZM238.873 245V236.273H241.924C242.532 236.273 243.034 236.378 243.429 236.588C243.824 236.795 244.118 237.075 244.311 237.428C244.504 237.777 244.6 238.165 244.6 238.591C244.6 238.966 244.534 239.276 244.4 239.52C244.27 239.764 244.096 239.957 243.88 240.099C243.667 240.241 243.436 240.347 243.186 240.415V240.5C243.453 240.517 243.721 240.611 243.991 240.781C244.261 240.952 244.487 241.196 244.669 241.514C244.85 241.832 244.941 242.222 244.941 242.682C244.941 243.119 244.842 243.513 244.643 243.862C244.444 244.212 244.13 244.489 243.701 244.693C243.272 244.898 242.714 245 242.027 245H238.873ZM239.93 244.062H242.027C242.717 244.062 243.207 243.929 243.497 243.662C243.789 243.392 243.936 243.065 243.936 242.682C243.936 242.386 243.86 242.114 243.71 241.864C243.559 241.611 243.345 241.409 243.066 241.259C242.788 241.105 242.458 241.028 242.078 241.028H239.93V244.062ZM239.93 240.108H241.89C242.208 240.108 242.495 240.045 242.751 239.92C243.01 239.795 243.214 239.619 243.365 239.392C243.518 239.165 243.595 238.898 243.595 238.591C243.595 238.207 243.461 237.882 243.194 237.615C242.927 237.345 242.504 237.21 241.924 237.21H239.93V240.108ZM245.928 236.273H247.138L249.559 240.347H249.661L252.081 236.273H253.292L250.138 241.403V245H249.081V241.403L245.928 236.273ZM262.806 238.455C262.755 238.023 262.548 237.688 262.184 237.449C261.82 237.21 261.374 237.091 260.846 237.091C260.46 237.091 260.121 237.153 259.832 237.278C259.545 237.403 259.32 237.575 259.158 237.794C258.999 238.013 258.92 238.261 258.92 238.54C258.92 238.773 258.975 238.973 259.086 239.141C259.2 239.305 259.344 239.443 259.521 239.554C259.697 239.662 259.881 239.751 260.075 239.822C260.268 239.891 260.445 239.946 260.607 239.989L261.494 240.227C261.721 240.287 261.974 240.369 262.252 240.474C262.533 240.58 262.802 240.723 263.058 240.905C263.316 241.084 263.529 241.314 263.697 241.595C263.864 241.876 263.948 242.222 263.948 242.631C263.948 243.102 263.825 243.528 263.577 243.909C263.333 244.29 262.975 244.592 262.504 244.817C262.035 245.041 261.465 245.153 260.795 245.153C260.17 245.153 259.629 245.053 259.171 244.851C258.717 244.649 258.359 244.368 258.097 244.007C257.839 243.646 257.692 243.227 257.658 242.75H258.749C258.778 243.08 258.888 243.352 259.082 243.568C259.278 243.781 259.525 243.94 259.823 244.045C260.124 244.148 260.448 244.199 260.795 244.199C261.198 244.199 261.56 244.134 261.881 244.003C262.202 243.869 262.457 243.685 262.644 243.449C262.832 243.21 262.925 242.932 262.925 242.614C262.925 242.324 262.844 242.088 262.683 241.906C262.521 241.724 262.308 241.577 262.043 241.463C261.779 241.349 261.494 241.25 261.187 241.165L260.113 240.858C259.431 240.662 258.891 240.382 258.494 240.018C258.096 239.655 257.897 239.179 257.897 238.591C257.897 238.102 258.029 237.676 258.293 237.312C258.56 236.946 258.918 236.662 259.367 236.46C259.819 236.256 260.323 236.153 260.88 236.153C261.442 236.153 261.942 236.254 262.38 236.456C262.817 236.655 263.164 236.928 263.42 237.274C263.678 237.621 263.815 238.014 263.829 238.455H262.806ZM265.686 245V236.273H268.635C269.319 236.273 269.879 236.396 270.314 236.643C270.751 236.888 271.075 237.219 271.285 237.636C271.495 238.054 271.6 238.52 271.6 239.034C271.6 239.548 271.495 240.016 271.285 240.436C271.078 240.857 270.757 241.192 270.322 241.442C269.887 241.689 269.331 241.812 268.652 241.812H266.538V240.875H268.618C269.086 240.875 269.463 240.794 269.747 240.632C270.031 240.47 270.237 240.251 270.365 239.976C270.495 239.697 270.561 239.384 270.561 239.034C270.561 238.685 270.495 238.372 270.365 238.097C270.237 237.821 270.029 237.605 269.743 237.449C269.456 237.29 269.075 237.21 268.6 237.21H266.743V245H265.686ZM273.303 245V236.273H278.57V237.21H274.36V240.159H278.297V241.097H274.36V244.062H278.638V245H273.303ZM287.498 239H286.441C286.378 238.696 286.269 238.429 286.113 238.199C285.959 237.969 285.772 237.776 285.55 237.619C285.331 237.46 285.088 237.341 284.821 237.261C284.554 237.182 284.276 237.142 283.986 237.142C283.458 237.142 282.979 237.276 282.55 237.543C282.124 237.81 281.784 238.203 281.532 238.723C281.282 239.243 281.157 239.881 281.157 240.636C281.157 241.392 281.282 242.03 281.532 242.55C281.784 243.07 282.124 243.463 282.55 243.73C282.979 243.997 283.458 244.131 283.986 244.131C284.276 244.131 284.554 244.091 284.821 244.011C285.088 243.932 285.331 243.814 285.55 243.658C285.772 243.499 285.959 243.304 286.113 243.074C286.269 242.841 286.378 242.574 286.441 242.273H287.498C287.418 242.719 287.273 243.118 287.063 243.47C286.853 243.822 286.591 244.122 286.279 244.369C285.966 244.614 285.615 244.8 285.226 244.928C284.84 245.055 284.426 245.119 283.986 245.119C283.242 245.119 282.58 244.938 282 244.574C281.421 244.21 280.965 243.693 280.632 243.023C280.3 242.352 280.134 241.557 280.134 240.636C280.134 239.716 280.3 238.92 280.632 238.25C280.965 237.58 281.421 237.062 282 236.699C282.58 236.335 283.242 236.153 283.986 236.153C284.426 236.153 284.84 236.217 285.226 236.345C285.615 236.473 285.966 236.661 286.279 236.908C286.591 237.152 286.853 237.45 287.063 237.803C287.273 238.152 287.418 238.551 287.498 239ZM290.262 236.273V245H289.205V236.273H290.262ZM292.739 245H291.631L294.836 236.273H295.926L299.131 245H298.023L295.415 237.653H295.347L292.739 245ZM293.148 241.591H297.614V242.528H293.148V241.591ZM300.49 245V236.273H301.547V244.062H305.604V245H300.49ZM308.297 236.273V245H307.24V236.273H308.297ZM310.126 245V244.233L314.831 237.21H310.075V236.273H316.092V237.04L311.388 244.062H316.143V245H310.126ZM318.274 245H317.166L320.371 236.273H321.462L324.666 245H323.558L320.95 237.653H320.882L318.274 245ZM318.683 241.591H323.149V242.528H318.683V241.591ZM324.529 237.21V236.273H331.074V237.21H328.33V245H327.273V237.21H324.529ZM333.762 236.273V245H332.705V236.273H333.762ZM343.245 240.636C343.245 241.557 343.078 242.352 342.746 243.023C342.414 243.693 341.958 244.21 341.378 244.574C340.799 244.938 340.137 245.119 339.392 245.119C338.648 245.119 337.986 244.938 337.407 244.574C336.827 244.21 336.371 243.693 336.039 243.023C335.706 242.352 335.54 241.557 335.54 240.636C335.54 239.716 335.706 238.92 336.039 238.25C336.371 237.58 336.827 237.062 337.407 236.699C337.986 236.335 338.648 236.153 339.392 236.153C340.137 236.153 340.799 236.335 341.378 236.699C341.958 237.062 342.414 237.58 342.746 238.25C343.078 238.92 343.245 239.716 343.245 240.636ZM342.222 240.636C342.222 239.881 342.096 239.243 341.843 238.723C341.593 238.203 341.253 237.81 340.824 237.543C340.398 237.276 339.921 237.142 339.392 237.142C338.864 237.142 338.385 237.276 337.956 237.543C337.53 237.81 337.191 238.203 336.938 238.723C336.688 239.243 336.563 239.881 336.563 240.636C336.563 241.392 336.688 242.03 336.938 242.55C337.191 243.07 337.53 243.463 337.956 243.73C338.385 243.997 338.864 244.131 339.392 244.131C339.921 244.131 340.398 243.997 340.824 243.73C341.253 243.463 341.593 243.07 341.843 242.55C342.096 242.03 342.222 241.392 342.222 240.636ZM351.942 236.273V245H350.919L346.164 238.148H346.078V245H345.022V236.273H346.044L350.817 243.142H350.902V236.273H351.942Z" fill="white"/>
<path d="M373.417 225.969V218H361.438C360.641 218 360 218.627 360 219.406V246.594C360 247.373 360.641 248 361.438 248H381.562C382.359 248 383 247.373 383 246.594V227.375H374.854C374.064 227.375 373.417 226.742 373.417 225.969ZM382.581 224.152L376.717 218.41C376.447 218.146 376.082 218 375.699 218H375.333V225.5H383V225.143C383 224.773 382.85 224.416 382.581 224.152Z" fill="#FFBC7D"/>
<path d="M369.593 243.557L369.545 243.616C369.51 243.652 369.449 243.698 369.364 243.755C369.282 243.808 369.182 243.863 369.065 243.92C368.951 243.973 368.798 244.018 368.606 244.053C368.414 244.092 368.208 244.112 367.988 244.112C367.522 244.112 367.124 244.036 366.793 243.883C366.462 243.726 366.203 243.5 366.014 243.205C365.83 242.907 365.696 242.571 365.614 242.197C365.533 241.82 365.492 241.385 365.492 240.891C365.492 240.364 365.533 239.911 365.614 239.531C365.696 239.147 365.831 238.811 366.02 238.523C366.212 238.231 366.475 238.012 366.809 237.867C367.143 237.721 367.55 237.648 368.03 237.648C368.251 237.648 368.457 237.668 368.649 237.707C368.845 237.746 368.998 237.79 369.108 237.84C369.222 237.89 369.323 237.947 369.412 238.011C369.504 238.075 369.561 238.119 369.582 238.144C369.607 238.169 369.625 238.188 369.636 238.203L369.556 239.429H368.745L368.468 238.795C368.404 238.777 368.35 238.768 368.308 238.768C368.07 238.768 367.886 238.823 367.758 238.933C367.63 239.04 367.533 239.252 367.465 239.568C367.398 239.881 367.364 240.332 367.364 240.923C367.364 241.275 367.385 241.582 367.428 241.845C367.474 242.108 367.529 242.311 367.593 242.453C367.657 242.592 367.734 242.704 367.822 242.789C367.911 242.875 367.991 242.93 368.062 242.955C368.134 242.976 368.21 242.987 368.292 242.987C368.473 242.987 368.663 242.965 368.862 242.923C369.062 242.876 369.225 242.807 369.353 242.715L369.593 243.557ZM371.93 244.112C371.656 244.112 371.4 244.087 371.162 244.037C370.927 243.991 370.73 243.929 370.57 243.851C370.41 243.772 370.278 243.698 370.175 243.627C370.075 243.556 369.992 243.484 369.924 243.413L370.058 242.117C370.203 242.313 370.399 242.484 370.644 242.629C370.89 242.772 371.154 242.843 371.439 242.843C371.723 242.843 371.928 242.812 372.052 242.752C372.18 242.692 372.244 242.581 372.244 242.421C372.244 242.251 372.171 242.105 372.026 241.984C371.883 241.863 371.636 241.717 371.284 241.547C371.156 241.483 371.048 241.426 370.959 241.376C370.87 241.323 370.751 241.237 370.602 241.12C370.456 240.999 370.337 240.875 370.244 240.747C370.152 240.615 370.07 240.448 369.999 240.245C369.928 240.039 369.892 239.819 369.892 239.584C369.892 238.315 370.609 237.68 372.042 237.68C372.269 237.68 372.482 237.705 372.682 237.755C372.884 237.801 373.042 237.852 373.156 237.909C373.27 237.966 373.373 238.034 373.466 238.112C373.562 238.187 373.622 238.24 373.647 238.272C373.672 238.3 373.69 238.324 373.7 238.341L373.434 239.371C373.295 239.207 373.121 239.086 372.911 239.008C372.705 238.926 372.507 238.885 372.319 238.885C371.864 238.885 371.636 239.028 371.636 239.312C371.636 239.387 371.65 239.454 371.679 239.515C371.707 239.575 371.754 239.63 371.818 239.68C371.882 239.73 371.94 239.772 371.994 239.808C372.05 239.844 372.127 239.888 372.223 239.941C372.322 239.991 372.397 240.032 372.447 240.064C372.966 240.284 373.346 240.546 373.588 240.848C373.834 241.15 373.956 241.518 373.956 241.952C373.956 242.656 373.782 243.193 373.434 243.563C373.089 243.929 372.587 244.112 371.93 244.112ZM375.577 244L373.812 237.749H375.78L376.244 239.904L376.724 242.165L377.177 239.904L377.657 237.749H379.06L377.513 244H375.577Z" fill="#1E1E1E"/>
<path d="M310 107L312.887 102H307.113L310 107ZM309.5 39V102.5H310.5V39H309.5Z" fill="white"/>
<path d="M81 214L83.8868 209H78.1132L81 214ZM80.5 146V209.5H81.5V146H80.5Z" fill="white"/>
<path d="M310 214L312.887 209H307.113L310 214ZM309.5 146V209.5H310.5V146H309.5Z" fill="white"/>
<path d="M229 234L224 236.887V231.113L229 234ZM161 233.5H224.5V234.5H161V233.5Z" fill="white"/>
<rect x="229.5" y="0.5" width="160" height="38" fill="#1E1E1E" stroke="url(#paint4_linear_104_2)"/>
<path d="M277.557 16V7.27273H282.79V8.21023H278.614V11.1591H282.398V12.0966H278.614V16H277.557ZM283.85 7.27273H285.06L287.48 11.3466H287.583L290.003 7.27273H291.213L288.06 12.4034V16H287.003V12.4034L283.85 7.27273ZM292.427 16V15.233L295.308 12.0795C295.646 11.7102 295.924 11.3892 296.143 11.1165C296.362 10.8409 296.523 10.5824 296.629 10.3409C296.737 10.0966 296.79 9.84091 296.79 9.57386C296.79 9.26705 296.717 9.00142 296.569 8.77699C296.424 8.55256 296.225 8.37926 295.972 8.2571C295.719 8.13494 295.435 8.07386 295.12 8.07386C294.785 8.07386 294.492 8.14347 294.242 8.28267C293.995 8.41903 293.803 8.6108 293.667 8.85795C293.533 9.10511 293.467 9.39489 293.467 9.72727H292.461C292.461 9.21591 292.579 8.76705 292.815 8.38068C293.05 7.99432 293.371 7.69318 293.778 7.47727C294.187 7.26136 294.646 7.15341 295.154 7.15341C295.665 7.15341 296.119 7.26136 296.513 7.47727C296.908 7.69318 297.218 7.98437 297.442 8.35085C297.667 8.71733 297.779 9.125 297.779 9.57386C297.779 9.89489 297.721 10.2088 297.604 10.5156C297.491 10.8196 297.292 11.1591 297.008 11.5341C296.727 11.9062 296.336 12.3608 295.836 12.8977L293.876 14.9943V15.0625H297.933V16H292.427ZM302.539 16.1193C301.897 16.1193 301.35 15.9446 300.898 15.5952C300.447 15.2429 300.102 14.733 299.863 14.0653C299.624 13.3949 299.505 12.5852 299.505 11.6364C299.505 10.6932 299.624 9.88778 299.863 9.22017C300.104 8.54972 300.451 8.03835 300.903 7.68608C301.357 7.33097 301.903 7.15341 302.539 7.15341C303.175 7.15341 303.719 7.33097 304.171 7.68608C304.626 8.03835 304.972 8.54972 305.211 9.22017C305.452 9.88778 305.573 10.6932 305.573 11.6364C305.573 12.5852 305.454 13.3949 305.215 14.0653C304.977 14.733 304.631 15.2429 304.18 15.5952C303.728 15.9446 303.181 16.1193 302.539 16.1193ZM302.539 15.1818C303.175 15.1818 303.67 14.875 304.022 14.2614C304.374 13.6477 304.55 12.7727 304.55 11.6364C304.55 10.8807 304.469 10.2372 304.308 9.70597C304.148 9.17472 303.918 8.76989 303.617 8.49148C303.319 8.21307 302.96 8.07386 302.539 8.07386C301.908 8.07386 301.415 8.38494 301.06 9.0071C300.705 9.62642 300.528 10.5028 300.528 11.6364C300.528 12.392 300.607 13.0341 300.766 13.5625C300.925 14.0909 301.154 14.4929 301.452 14.7685C301.754 15.044 302.116 15.1818 302.539 15.1818ZM307.192 16V15.233L310.073 12.0795C310.411 11.7102 310.69 11.3892 310.908 11.1165C311.127 10.8409 311.289 10.5824 311.394 10.3409C311.502 10.0966 311.556 9.84091 311.556 9.57386C311.556 9.26705 311.482 9.00142 311.335 8.77699C311.19 8.55256 310.991 8.37926 310.738 8.2571C310.485 8.13494 310.201 8.07386 309.886 8.07386C309.55 8.07386 309.258 8.14347 309.008 8.28267C308.761 8.41903 308.569 8.6108 308.433 8.85795C308.299 9.10511 308.232 9.39489 308.232 9.72727H307.227C307.227 9.21591 307.344 8.76705 307.58 8.38068C307.816 7.99432 308.137 7.69318 308.543 7.47727C308.952 7.26136 309.411 7.15341 309.92 7.15341C310.431 7.15341 310.884 7.26136 311.279 7.47727C311.674 7.69318 311.984 7.98437 312.208 8.35085C312.433 8.71733 312.545 9.125 312.545 9.57386C312.545 9.89489 312.487 10.2088 312.37 10.5156C312.256 10.8196 312.058 11.1591 311.773 11.5341C311.492 11.9062 311.102 12.3608 310.602 12.8977L308.641 14.9943V15.0625H312.698V16H307.192ZM314.458 16V15.233L317.339 12.0795C317.677 11.7102 317.955 11.3892 318.174 11.1165C318.393 10.8409 318.555 10.5824 318.66 10.3409C318.768 10.0966 318.822 9.84091 318.822 9.57386C318.822 9.26705 318.748 9.00142 318.6 8.77699C318.455 8.55256 318.256 8.37926 318.004 8.2571C317.751 8.13494 317.467 8.07386 317.151 8.07386C316.816 8.07386 316.523 8.14347 316.273 8.28267C316.026 8.41903 315.835 8.6108 315.698 8.85795C315.565 9.10511 315.498 9.39489 315.498 9.72727H314.492C314.492 9.21591 314.61 8.76705 314.846 8.38068C315.082 7.99432 315.403 7.69318 315.809 7.47727C316.218 7.26136 316.677 7.15341 317.185 7.15341C317.697 7.15341 318.15 7.26136 318.545 7.47727C318.94 7.69318 319.249 7.98437 319.474 8.35085C319.698 8.71733 319.81 9.125 319.81 9.57386C319.81 9.89489 319.752 10.2088 319.636 10.5156C319.522 10.8196 319.323 11.1591 319.039 11.5341C318.758 11.9062 318.367 12.3608 317.867 12.8977L315.907 14.9943V15.0625H319.964V16H314.458ZM330.979 7.27273H332.036V13.0511C332.036 13.6477 331.896 14.1804 331.614 14.6491C331.336 15.1151 330.942 15.483 330.434 15.7528C329.925 16.0199 329.329 16.1534 328.644 16.1534C327.96 16.1534 327.363 16.0199 326.854 15.7528C326.346 15.483 325.951 15.1151 325.67 14.6491C325.391 14.1804 325.252 13.6477 325.252 13.0511V7.27273H326.309V12.9659C326.309 13.392 326.403 13.7713 326.59 14.1037C326.778 14.4332 327.045 14.6932 327.391 14.8835C327.741 15.071 328.158 15.1648 328.644 15.1648C329.13 15.1648 329.548 15.071 329.897 14.8835C330.246 14.6932 330.513 14.4332 330.698 14.1037C330.886 13.7713 330.979 13.392 330.979 12.9659V7.27273ZM334.147 16V7.27273H337.198C337.806 7.27273 338.307 7.37784 338.702 7.58807C339.097 7.79545 339.391 8.07528 339.584 8.42756C339.777 8.77699 339.874 9.16477 339.874 9.59091C339.874 9.96591 339.807 10.2756 339.674 10.5199C339.543 10.7642 339.37 10.9574 339.154 11.0994C338.941 11.2415 338.709 11.3466 338.459 11.4148V11.5C338.726 11.517 338.995 11.6108 339.265 11.7812C339.534 11.9517 339.76 12.196 339.942 12.5142C340.124 12.8324 340.215 13.2216 340.215 13.6818C340.215 14.1193 340.115 14.5128 339.917 14.8622C339.718 15.2116 339.404 15.4886 338.975 15.6932C338.546 15.8977 337.988 16 337.3 16H334.147ZM335.203 15.0625H337.3C337.99 15.0625 338.48 14.929 338.77 14.6619C339.063 14.392 339.209 14.0653 339.209 13.6818C339.209 13.3864 339.134 13.1136 338.983 12.8636C338.833 12.6108 338.618 12.4091 338.34 12.2585C338.061 12.1051 337.732 12.0284 337.351 12.0284H335.203V15.0625ZM335.203 11.108H337.164C337.482 11.108 337.769 11.0455 338.025 10.9205C338.283 10.7955 338.488 10.6193 338.638 10.392C338.792 10.1648 338.868 9.89773 338.868 9.59091C338.868 9.20739 338.735 8.8821 338.468 8.61506C338.201 8.34517 337.777 8.21023 337.198 8.21023H335.203V11.108ZM348.974 10H347.917C347.855 9.69602 347.745 9.42898 347.589 9.19886C347.436 8.96875 347.248 8.77557 347.027 8.61932C346.808 8.46023 346.565 8.34091 346.298 8.26136C346.031 8.18182 345.752 8.14205 345.463 8.14205C344.934 8.14205 344.456 8.27557 344.027 8.54261C343.6 8.80966 343.261 9.20312 343.008 9.72301C342.758 10.2429 342.633 10.8807 342.633 11.6364C342.633 12.392 342.758 13.0298 343.008 13.5497C343.261 14.0696 343.6 14.4631 344.027 14.7301C344.456 14.9972 344.934 15.1307 345.463 15.1307C345.752 15.1307 346.031 15.0909 346.298 15.0114C346.565 14.9318 346.808 14.8139 347.027 14.6577C347.248 14.4986 347.436 14.304 347.589 14.0739C347.745 13.8409 347.855 13.5739 347.917 13.2727H348.974C348.895 13.7187 348.75 14.1179 348.539 14.4702C348.329 14.8224 348.068 15.1222 347.755 15.3693C347.443 15.6136 347.092 15.7997 346.703 15.9276C346.316 16.0554 345.903 16.1193 345.463 16.1193C344.718 16.1193 344.056 15.9375 343.477 15.5739C342.897 15.2102 342.441 14.6932 342.109 14.0227C341.777 13.3523 341.61 12.5568 341.61 11.6364C341.61 10.7159 341.777 9.92045 342.109 9.25C342.441 8.57955 342.897 8.0625 343.477 7.69886C344.056 7.33523 344.718 7.15341 345.463 7.15341C345.903 7.15341 346.316 7.21733 346.703 7.34517C347.092 7.47301 347.443 7.66051 347.755 7.90767C348.068 8.15199 348.329 8.45028 348.539 8.80256C348.75 9.15199 348.895 9.55114 348.974 10ZM232.885 31V22.2727H238.118V23.2102H233.942V26.1591H237.726V27.0966H233.942V31H232.885ZM240.985 22.2727V31H239.928V22.2727H240.985ZM250.024 22.2727V31H249.001L244.246 24.1477H244.161V31H243.104V22.2727H244.126L248.899 29.142H248.984V22.2727H250.024ZM252.497 31H251.389L254.593 22.2727H255.684L258.889 31H257.781L255.173 23.6534H255.105L252.497 31ZM252.906 27.5909H257.372V28.5284H252.906V27.5909ZM267.169 22.2727V31H266.146L261.39 24.1477H261.305V31H260.248V22.2727H261.271L266.044 29.142H266.129V22.2727H267.169ZM276.306 25H275.249C275.187 24.696 275.077 24.429 274.921 24.1989C274.768 23.9688 274.58 23.7756 274.359 23.6193C274.14 23.4602 273.897 23.3409 273.63 23.2614C273.363 23.1818 273.085 23.142 272.795 23.142C272.266 23.142 271.788 23.2756 271.359 23.5426C270.933 23.8097 270.593 24.2031 270.34 24.723C270.09 25.2429 269.965 25.8807 269.965 26.6364C269.965 27.392 270.09 28.0298 270.34 28.5497C270.593 29.0696 270.933 29.4631 271.359 29.7301C271.788 29.9972 272.266 30.1307 272.795 30.1307C273.085 30.1307 273.363 30.0909 273.63 30.0114C273.897 29.9318 274.14 29.8139 274.359 29.6577C274.58 29.4986 274.768 29.304 274.921 29.0739C275.077 28.8409 275.187 28.5739 275.249 28.2727H276.306C276.227 28.7187 276.082 29.1179 275.871 29.4702C275.661 29.8224 275.4 30.1222 275.087 30.3693C274.775 30.6136 274.424 30.7997 274.035 30.9276C273.648 31.0554 273.235 31.1193 272.795 31.1193C272.05 31.1193 271.388 30.9375 270.809 30.5739C270.229 30.2102 269.773 29.6932 269.441 29.0227C269.109 28.3523 268.942 27.5568 268.942 26.6364C268.942 25.7159 269.109 24.9205 269.441 24.25C269.773 23.5795 270.229 23.0625 270.809 22.6989C271.388 22.3352 272.05 22.1534 272.795 22.1534C273.235 22.1534 273.648 22.2173 274.035 22.3452C274.424 22.473 274.775 22.6605 275.087 22.9077C275.4 23.152 275.661 23.4503 275.871 23.8026C276.082 24.152 276.227 24.5511 276.306 25ZM279.071 22.2727V31H278.014V22.2727H279.071ZM281.548 31H280.44L283.644 22.2727H284.735L287.94 31H286.832L284.224 23.6534H284.156L281.548 31ZM281.957 27.5909H286.423V28.5284H281.957V27.5909ZM289.299 31V22.2727H290.356V30.0625H294.413V31H289.299ZM299.424 31V22.2727H302.373C303.055 22.2727 303.614 22.3892 304.052 22.6222C304.489 22.8523 304.813 23.169 305.023 23.5724C305.234 23.9759 305.339 24.4347 305.339 24.9489C305.339 25.4631 305.234 25.919 305.023 26.3168C304.813 26.7145 304.491 27.027 304.056 27.2543C303.621 27.4787 303.066 27.5909 302.39 27.5909H300.004V26.6364H302.356C302.822 26.6364 303.197 26.5682 303.481 26.4318C303.768 26.2955 303.975 26.1023 304.103 25.8523C304.234 25.5994 304.299 25.2983 304.299 24.9489C304.299 24.5994 304.234 24.294 304.103 24.0327C303.972 23.7713 303.763 23.5696 303.477 23.4276C303.19 23.2827 302.81 23.2102 302.339 23.2102H300.481V31H299.424ZM303.532 27.0795L305.68 31H304.452L302.339 27.0795H303.532ZM307.1 31V22.2727H312.367V23.2102H308.157V26.1591H312.094V27.0966H308.157V30.0625H312.435V31H307.1ZM314.272 31V22.2727H317.221C317.905 22.2727 318.465 22.3963 318.9 22.6435C319.337 22.8878 319.661 23.2188 319.871 23.6364C320.081 24.054 320.186 24.5199 320.186 25.0341C320.186 25.5483 320.081 26.0156 319.871 26.4361C319.664 26.8565 319.343 27.1918 318.908 27.4418C318.473 27.6889 317.917 27.8125 317.238 27.8125H315.124V26.875H317.203C317.672 26.875 318.049 26.794 318.333 26.6321C318.617 26.4702 318.823 26.2514 318.951 25.9759C319.081 25.6974 319.147 25.3835 319.147 25.0341C319.147 24.6847 319.081 24.3722 318.951 24.0966C318.823 23.821 318.615 23.6051 318.328 23.4489C318.042 23.2898 317.661 23.2102 317.186 23.2102H315.328V31H314.272ZM329.252 26.6364C329.252 27.5568 329.086 28.3523 328.754 29.0227C328.422 29.6932 327.966 30.2102 327.386 30.5739C326.806 30.9375 326.145 31.1193 325.4 31.1193C324.656 31.1193 323.994 30.9375 323.414 30.5739C322.835 30.2102 322.379 29.6932 322.047 29.0227C321.714 28.3523 321.548 27.5568 321.548 26.6364C321.548 25.7159 321.714 24.9205 322.047 24.25C322.379 23.5795 322.835 23.0625 323.414 22.6989C323.994 22.3352 324.656 22.1534 325.4 22.1534C326.145 22.1534 326.806 22.3352 327.386 22.6989C327.966 23.0625 328.422 23.5795 328.754 24.25C329.086 24.9205 329.252 25.7159 329.252 26.6364ZM328.23 26.6364C328.23 25.8807 328.103 25.2429 327.85 24.723C327.6 24.2031 327.261 23.8097 326.832 23.5426C326.406 23.2756 325.929 23.142 325.4 23.142C324.872 23.142 324.393 23.2756 323.964 23.5426C323.538 23.8097 323.199 24.2031 322.946 24.723C322.696 25.2429 322.571 25.8807 322.571 26.6364C322.571 27.392 322.696 28.0298 322.946 28.5497C323.199 29.0696 323.538 29.4631 323.964 29.7301C324.393 29.9972 324.872 30.1307 325.4 30.1307C325.929 30.1307 326.406 29.9972 326.832 29.7301C327.261 29.4631 327.6 29.0696 327.85 28.5497C328.103 28.0298 328.23 27.392 328.23 26.6364ZM331.029 31V22.2727H333.978C334.66 22.2727 335.22 22.3892 335.657 22.6222C336.095 22.8523 336.419 23.169 336.629 23.5724C336.839 23.9759 336.944 24.4347 336.944 24.9489C336.944 25.4631 336.839 25.919 336.629 26.3168C336.419 26.7145 336.096 27.027 335.662 27.2543C335.227 27.4787 334.672 27.5909 333.995 27.5909H331.609V26.6364H333.961C334.427 26.6364 334.802 26.5682 335.086 26.4318C335.373 26.2955 335.581 26.1023 335.708 25.8523C335.839 25.5994 335.904 25.2983 335.904 24.9489C335.904 24.5994 335.839 24.294 335.708 24.0327C335.578 23.7713 335.369 23.5696 335.082 23.4276C334.795 23.2827 334.416 23.2102 333.944 23.2102H332.086V31H331.029ZM335.137 27.0795L337.285 31H336.058L333.944 27.0795H335.137ZM338.228 23.2102V22.2727H344.773V23.2102H342.029V31H340.972V23.2102H338.228ZM351.177 24.4545C351.126 24.0227 350.919 23.6875 350.555 23.4489C350.191 23.2102 349.745 23.0909 349.217 23.0909C348.831 23.0909 348.493 23.1534 348.203 23.2784C347.916 23.4034 347.691 23.5753 347.529 23.794C347.37 24.0128 347.291 24.2614 347.291 24.5398C347.291 24.7727 347.346 24.973 347.457 25.1406C347.571 25.3054 347.716 25.4432 347.892 25.554C348.068 25.6619 348.252 25.7514 348.446 25.8224C348.639 25.8906 348.816 25.946 348.978 25.9886L349.865 26.2273C350.092 26.2869 350.345 26.3693 350.623 26.4744C350.904 26.5795 351.173 26.723 351.429 26.9048C351.687 27.0838 351.9 27.3139 352.068 27.5952C352.235 27.8764 352.319 28.2216 352.319 28.6307C352.319 29.1023 352.196 29.5284 351.949 29.9091C351.704 30.2898 351.346 30.5923 350.875 30.8168C350.406 31.0412 349.836 31.1534 349.166 31.1534C348.541 31.1534 348 31.0526 347.542 30.8509C347.088 30.6491 346.73 30.3679 346.468 30.0071C346.21 29.6463 346.064 29.2273 346.029 28.75H347.12C347.149 29.0795 347.26 29.3523 347.453 29.5682C347.649 29.7812 347.896 29.9403 348.194 30.0455C348.495 30.1477 348.819 30.1989 349.166 30.1989C349.569 30.1989 349.931 30.1335 350.252 30.0028C350.574 29.8693 350.828 29.6847 351.015 29.4489C351.203 29.2102 351.297 28.9318 351.297 28.6136C351.297 28.3239 351.216 28.0881 351.054 27.9062C350.892 27.7244 350.679 27.5767 350.414 27.4631C350.15 27.3494 349.865 27.25 349.558 27.1648L348.484 26.858C347.802 26.6619 347.262 26.3821 346.865 26.0185C346.467 25.6548 346.268 25.179 346.268 24.5909C346.268 24.1023 346.4 23.6761 346.664 23.3125C346.931 22.946 347.289 22.6619 347.738 22.4602C348.19 22.2557 348.694 22.1534 349.251 22.1534C349.814 22.1534 350.314 22.2543 350.751 22.456C351.189 22.6548 351.535 22.9276 351.791 23.2741C352.049 23.6207 352.186 24.0142 352.2 24.4545H351.177Z" fill="white"/>
<path d="M384 4H366C364.35 4 363 5.35 363 7V25C363 26.65 364.35 28 366 28H384C385.65 28 387 26.65 387 25V7C387 5.35 385.65 4 384 4ZM371.25 15.25C371.25 16.495 370.245 17.5 369 17.5H367.5V20.5H365.25V11.5H369C370.245 11.5 371.25 12.505 371.25 13.75V15.25ZM378.75 18.25C378.75 19.495 377.745 20.5 376.5 20.5H372.75V11.5H376.5C377.745 11.5 378.75 12.505 378.75 13.75V18.25ZM384.75 13.75H382.5V15.25H384.75V17.5H382.5V20.5H380.25V11.5H384.75V13.75ZM367.5 15.25H369V13.75H367.5V15.25ZM360 10H357V31C357 32.65 358.35 34 360 34H381V31H360V10ZM375 18.25H376.5V13.75H375V18.25Z" fill="#FFBC7D"/>
<defs>
<linearGradient id="paint0_linear_104_2" x1="80.5" y1="107" x2="80.5" y2="146" gradientUnits="userSpaceOnUse">
<stop stop-color="white" stop-opacity="0"/>
<stop offset="1" stop-color="white"/>
</linearGradient>
<linearGradient id="paint1_linear_104_2" x1="80.5" y1="214" x2="80.5" y2="253" gradientUnits="userSpaceOnUse">
<stop stop-color="white" stop-opacity="0"/>
<stop offset="1" stop-color="white"/>
</linearGradient>
<linearGradient id="paint2_linear_104_2" x1="309.5" y1="107" x2="309.5" y2="146" gradientUnits="userSpaceOnUse">
<stop stop-color="white" stop-opacity="0"/>
<stop offset="1" stop-color="white"/>
</linearGradient>
<linearGradient id="paint3_linear_104_2" x1="309.5" y1="214" x2="309.5" y2="253" gradientUnits="userSpaceOnUse">
<stop stop-color="white" stop-opacity="0"/>
<stop offset="1" stop-color="white"/>
</linearGradient>
<linearGradient id="paint4_linear_104_2" x1="309.5" y1="0" x2="309.5" y2="39" gradientUnits="userSpaceOnUse">
<stop stop-color="white" stop-opacity="0"/>
<stop offset="1" stop-color="white"/>
</linearGradient>
</defs>
</svg>
